<svg width="914" height="914" viewBox="0 0 914 914" fill="none" xmlns="http://www.w3.org/2000/svg">
<path opacity="0.7" d="M124.177 305.44C124.177 305.44 73.2119 437.056 144.833 569.586C216.454 702.116 363.974 772.128 482.044 831.995C600.114 891.862 722.718 862.706 780.977 764.652C839.235 666.598 759.333 596.604 759.224 456.78C759.114 316.956 780.154 279.939 704.384 161.814C628.613 43.6884 442.87 17.5298 302.406 105.146C161.943 192.762 124.177 305.44 124.177 305.44Z" fill="white"/>
<path d="M759.224 475.059C759.132 335.235 780.154 298.218 704.384 180.093C628.613 61.9677 442.87 35.8091 302.406 123.425C161.943 211.041 124.177 323.719 124.177 323.719C124.177 323.719 73.2119 455.335 144.833 587.865C210.33 709.098 339.314 777.977 451.187 834.645H737.251C754.642 819.993 769.426 802.501 780.977 782.913C839.235 684.877 759.333 614.883 759.224 475.059Z" fill="#457B9D"/>
<path opacity="0.7" d="M759.224 475.059C759.132 335.235 780.154 298.218 704.384 180.093C628.613 61.9677 442.87 35.8091 302.406 123.425C161.943 211.041 124.177 323.719 124.177 323.719C124.177 323.719 73.2119 455.335 144.833 587.865C210.33 709.098 339.314 777.977 451.187 834.645H737.251C754.642 819.993 769.426 802.501 780.977 782.913C839.235 684.877 759.333 614.883 759.224 475.059Z" fill="white"/>
<path d="M420.057 92.717C422.524 102.497 421.318 84.491 426.162 62.4453C431.006 40.3997 439.287 49.3569 439.287 49.3569" stroke="#1D3557" stroke-linecap="round" stroke-linejoin="round"/>
<path d="M418.539 70.1957L433.73 63.9805" stroke="#1D3557" stroke-linecap="round" stroke-linejoin="round"/>
<path d="M446.288 56.5215C446.288 56.5215 437.148 75.2768 450.876 83.2651" stroke="#1D3557" stroke-linecap="round" stroke-linejoin="round"/>
<path d="M459.157 51.1855C459.157 51.1855 474.129 59.5029 464.751 77.527" stroke="#1D3557" stroke-linecap="round" stroke-linejoin="round"/>
<path d="M448.884 62.8652L459.614 70.7073" stroke="#1D3557" stroke-linecap="round" stroke-linejoin="round"/>
<path d="M457.311 59.4297L448.902 72.7924" stroke="#1D3557" stroke-linecap="round" stroke-linejoin="round"/>
<path d="M130.355 534.545C130.355 534.545 104.891 534.18 104.763 556.152" stroke="#1D3557" stroke-linecap="round" stroke-linejoin="round"/>
<path d="M128.234 548.4C127.704 545.164 116.626 541.088 114.707 549.533C112.787 557.978 126.552 552.915 130.811 548.966C130.811 548.966 122.915 556.644 125.327 558.801" stroke="#1D3557" stroke-linecap="round" stroke-linejoin="round"/>
<path d="M129.788 561.197C129.788 561.197 126.443 565.383 122.823 563.391" stroke="#1D3557" stroke-linecap="round" stroke-linejoin="round"/>
<path d="M152.071 546.572L132.969 565.967C132.969 565.967 142.584 556.224 148.159 559.368C155.106 563.17 146.094 573.59 138.672 566.132" stroke="#1D3557" stroke-linecap="round" stroke-linejoin="round"/>
<path d="M161.723 551.801C161.723 551.801 166.787 574.998 140.646 575.821" stroke="#1D3557" stroke-linecap="round" stroke-linejoin="round"/>
<path d="M502.755 157.447L511.968 158.965L512.096 179.895L532.277 143.098L564.121 148.326" stroke="#1D3557" stroke-linecap="round" stroke-linejoin="round"/>
<path d="M535.769 159.219L549.771 183.933" stroke="#1D3557" stroke-linecap="round" stroke-linejoin="round"/>
<path d="M553.372 162.107L528.311 180.406" stroke="#1D3557" stroke-linecap="round" stroke-linejoin="round"/>
<path d="M376.86 194.701C374.502 191.703 360.92 193.841 363.68 203.457C366.44 213.072 377.664 200.258 379.803 193.841C379.803 193.841 376.056 206.107 379.803 206.93" stroke="#1D3557" stroke-linecap="round" stroke-linejoin="round"/>
<path d="M387.262 184.811L384.228 195.596C384.228 195.596 385.745 190.112 388.414 190.112C391.686 190.112 390.498 195.687 386.312 194.462" stroke="#1D3557" stroke-linecap="round" stroke-linejoin="round"/>
<path d="M643.328 317.744L636.93 340.868L650.914 356.187" stroke="#1D3557" stroke-linecap="round" stroke-linejoin="round"/>
<path d="M651.334 327.141L667.347 340.54" stroke="#1D3557" stroke-linecap="round" stroke-linejoin="round"/>
<path d="M662.358 323.85L655.43 340.868" stroke="#1D3557" stroke-linecap="round" stroke-linejoin="round"/>
<path d="M673.618 338.674C673.618 338.674 673.765 343.5 671.681 344.158" stroke="#1D3557" stroke-linecap="round" stroke-linejoin="round"/>
<path d="M675.647 321.82L685.318 329.004" stroke="#1D3557" stroke-linecap="round" stroke-linejoin="round"/>
<path d="M688.9 315.916L679.357 350.282" stroke="#1D3557" stroke-linecap="round" stroke-linejoin="round"/>
<path d="M689.375 303.979L704.877 321.527L698.278 340.721" stroke="#1D3557" stroke-linecap="round" stroke-linejoin="round"/>
<path d="M262.464 756.811L284.894 690.053L312.094 720.416L262.464 756.811Z" stroke="#1D3557" stroke-linecap="round" stroke-linejoin="round"/>
<path d="M305.423 725.298L299.683 718.735L305.806 713.434" stroke="#1D3557" stroke-linecap="round" stroke-linejoin="round"/>
<path d="M129.888 381.745C141.538 376.92 147.07 363.564 142.244 351.914C137.419 340.264 124.063 334.732 112.413 339.558C100.763 344.383 95.2312 357.739 100.057 369.389C104.882 381.038 118.238 386.571 129.888 381.745Z" stroke="#1D3557" stroke-linecap="round" stroke-linejoin="round"/>
<path d="M146.478 365.985C160.47 365.985 171.814 354.641 171.814 340.649C171.814 326.656 160.47 315.312 146.478 315.312C132.485 315.312 121.142 326.656 121.142 340.649C121.142 354.641 132.485 365.985 146.478 365.985Z" stroke="#1D3557" stroke-linecap="round" stroke-linejoin="round"/>
<path d="M125.638 338.254L122.549 348.984" stroke="#1D3557" stroke-linecap="round" stroke-linejoin="round"/>
<path d="M130.007 339.588L125.638 355.053" stroke="#1D3557" stroke-linecap="round" stroke-linejoin="round"/>
<path d="M134.596 342.186L130.008 359.68" stroke="#1D3557" stroke-linecap="round" stroke-linejoin="round"/>
<path d="M139.696 347.32L136.424 363.919" stroke="#1D3557" stroke-linecap="round" stroke-linejoin="round"/>
<path d="M142.565 352.732L139.695 365.072" stroke="#1D3557" stroke-linecap="round" stroke-linejoin="round"/>
<path d="M99.3156 331.38C97.3231 330.777 91.8574 335.968 96.0983 339.46C100.339 342.951 101.418 333.647 100.376 330.082C100.376 330.082 102.515 336.791 104.452 335.987" stroke="#1D3557" stroke-linecap="round" stroke-linejoin="round"/>
<path d="M128.782 302.078L136.094 315.386C136.094 315.386 132.438 308.732 135.016 306.246C138.16 303.175 142.328 309.664 137.063 312.388" stroke="#1D3557" stroke-linecap="round" stroke-linejoin="round"/>
<path d="M262.391 300.488L272.719 310.268" stroke="#1D3557" stroke-linecap="round" stroke-linejoin="round"/>
<path d="M272.72 297.947L264.073 310.853" stroke="#1D3557" stroke-linecap="round" stroke-linejoin="round"/>
<path d="M282.883 301.658L293.211 297.801" stroke="#1D3557" stroke-linecap="round" stroke-linejoin="round"/>
<path d="M298.165 287.033L304.453 292.59" stroke="#1D3557" stroke-linecap="round" stroke-linejoin="round"/>
<path d="M309.261 280.344L301.31 307.654" stroke="#1D3557" stroke-linecap="round" stroke-linejoin="round"/>
<path d="M760.704 274.86L760.266 253.984H776.041C776.041 253.984 767.303 258.81 771.325 270.034C775.347 281.258 781.818 274.86 781.818 274.86" stroke="#1D3557" stroke-linecap="round" stroke-linejoin="round"/>
<path d="M733.979 630.971L751.929 618.613L775.693 620.277L777.174 650.402L759.735 662.887L738.201 661.315L733.979 630.971Z" stroke="#1D3557" stroke-linecap="round" stroke-linejoin="round"/>
<path d="M738.201 661.316L755.567 648.812L777.174 650.403" stroke="#1D3557" stroke-linecap="round" stroke-linejoin="round"/>
<path d="M755.586 648.812L751.93 618.613" stroke="#1D3557" stroke-linecap="round" stroke-linejoin="round"/>
<path d="M733.979 630.971L757.688 633.713L775.693 620.277" stroke="#1D3557" stroke-linecap="round" stroke-linejoin="round"/>
<path d="M757.688 633.713L759.735 662.888" stroke="#1D3557" stroke-linecap="round" stroke-linejoin="round"/>
<path d="M737.25 404.701L736.482 444.862L771.671 428.886L737.25 404.701Z" stroke="#1D3557" stroke-linecap="round" stroke-linejoin="round"/>
<path d="M737.251 404.701L754.013 436.673" stroke="#1D3557" stroke-linecap="round" stroke-linejoin="round"/>
<path d="M751.326 431.537L755.403 429.562L758.144 435.028" stroke="#1D3557" stroke-linecap="round" stroke-linejoin="round"/>
<path d="M430.439 400.9L444.99 416.493" stroke="#1D3557" stroke-linecap="round" stroke-linejoin="round"/>
<path d="M445.1 398.797L432.87 415.541" stroke="#1D3557" stroke-linecap="round" stroke-linejoin="round"/>
<path d="M451.059 390.627C451.468 390.437 451.915 390.346 452.365 390.359C452.816 390.372 453.257 390.489 453.654 390.702C454.051 390.915 454.393 391.217 454.653 391.584C454.914 391.952 455.085 392.375 455.154 392.82C455.867 396.33 450.108 400.9 450.108 400.9H458.316" stroke="#1D3557" stroke-linecap="round" stroke-linejoin="round"/>
<path d="M203.896 167.263C204.595 158.407 207.514 149.869 212.383 142.438C217.252 135.007 223.914 128.922 231.754 124.744" stroke="#1D3557" stroke-linecap="round" stroke-linejoin="round"/>
<path d="M244.312 223.016C230.98 219.819 219.411 211.567 212.048 200.002" stroke="#1D3557" stroke-linecap="round" stroke-linejoin="round"/>
<path d="M309.48 175.691C308.352 189.691 301.714 202.671 291.024 211.78C280.334 220.89 266.466 225.386 252.465 224.28" stroke="#1D3557" stroke-linecap="round" stroke-linejoin="round"/>
<path d="M260.892 118.693C272.928 119.658 284.274 124.703 293.053 132.993C301.832 141.284 307.517 152.323 309.169 164.284" stroke="#1D3557" stroke-linecap="round" stroke-linejoin="round"/>
<path d="M279.538 212.249C272.149 216.395 263.771 218.455 255.302 218.207C246.833 217.96 238.59 215.415 231.456 210.845C224.321 206.275 218.563 199.852 214.796 192.262C211.03 184.672 209.398 176.202 210.074 167.756" stroke="#1D3557" stroke-linecap="round" stroke-linejoin="round"/>
<path d="M213.071 154.668C215.531 148.273 219.366 142.498 224.306 137.75C229.245 133.002 235.168 129.398 241.655 127.194C248.142 124.989 255.034 124.237 261.843 124.991C268.653 125.746 275.214 127.988 281.06 131.559C286.907 135.13 291.898 139.943 295.678 145.656C299.459 151.37 301.937 157.845 302.938 164.623C303.938 171.401 303.437 178.316 301.468 184.878C299.5 191.44 296.113 197.49 291.547 202.598" stroke="#1D3557" stroke-linecap="round" stroke-linejoin="round"/>
<path d="M252.1 137.85L256.688 171.485L282.536 163.442" stroke="#1D3557" stroke-linecap="round" stroke-linejoin="round"/>
<path d="M659.725 236.854C652.295 236.926 645.018 234.738 638.858 230.581C632.699 226.425 627.947 220.494 625.234 213.577C622.52 206.659 621.972 199.08 623.663 191.844C625.353 184.608 629.202 178.056 634.7 173.057" stroke="#1D3557" stroke-linecap="round" stroke-linejoin="round"/>
<path d="M694.074 212.049C692.292 217.302 689.339 222.082 685.437 226.025C681.535 229.968 676.787 232.971 671.553 234.807" stroke="#1D3557" stroke-linecap="round" stroke-linejoin="round"/>
<path d="M647.203 165.599C656.376 162.371 666.455 162.919 675.224 167.121C683.993 171.324 690.734 178.838 693.964 188.01" stroke="#1D3557" stroke-linecap="round" stroke-linejoin="round"/>
<path d="M677.475 173.367C681.264 175.928 684.467 179.263 686.873 183.152C689.279 187.041 690.834 191.396 691.434 195.93C692.034 200.463 691.666 205.073 690.354 209.454C689.043 213.835 686.818 217.888 683.825 221.347C680.833 224.805 677.141 227.589 672.994 229.517C668.846 231.444 664.338 232.47 659.765 232.528C655.192 232.585 650.659 231.673 646.464 229.851C642.27 228.028 638.509 225.337 635.431 221.955" stroke="#1D3557" stroke-linecap="round" stroke-linejoin="round"/>
<path d="M628.832 210.916C626.887 205.38 626.483 199.419 627.665 193.672C628.847 187.924 631.569 182.606 635.541 178.287C639.513 173.967 644.584 170.81 650.213 169.151C655.841 167.493 661.815 167.396 667.494 168.872" stroke="#1D3557" stroke-linecap="round" stroke-linejoin="round"/>
<path d="M647.021 180.205L659.378 200.185L648.117 214.791" stroke="#1D3557" stroke-linecap="round" stroke-linejoin="round"/>
<path d="M400.332 746.611C400.316 741.816 401.474 737.09 403.704 732.846C405.935 728.602 409.17 724.968 413.128 722.262" stroke="#1D3557" stroke-linecap="round" stroke-linejoin="round"/>
<path d="M450.986 766.865C447.499 770.532 443.125 773.237 438.288 774.719C433.45 776.201 428.311 776.41 423.369 775.325C418.427 774.241 413.848 771.9 410.075 768.529C406.302 765.157 403.463 760.87 401.831 756.08" stroke="#1D3557" stroke-linecap="round" stroke-linejoin="round"/>
<path d="M429.672 717.197C437.473 717.197 444.954 720.296 450.47 725.812C455.986 731.328 459.084 738.809 459.084 746.61" stroke="#1D3557" stroke-linecap="round" stroke-linejoin="round"/>
<path d="M429.672 772.55C422.792 772.55 416.194 769.818 411.33 764.953C406.465 760.089 403.732 753.491 403.732 746.611" stroke="#1D3557" stroke-linecap="round" stroke-linejoin="round"/>
<path d="M409.472 730.323C411.876 727.352 414.907 724.949 418.348 723.286C421.789 721.622 425.555 720.739 429.376 720.699C433.198 720.659 436.981 721.463 440.456 723.055C443.931 724.646 447.012 726.985 449.478 729.905C451.944 732.825 453.735 736.253 454.723 739.945C455.711 743.637 455.871 747.501 455.193 751.263C454.515 755.024 453.014 758.589 450.798 761.703C448.583 764.817 445.707 767.404 442.376 769.278" stroke="#1D3557" stroke-linecap="round" stroke-linejoin="round"/>
<path d="M425.65 764.234L429.672 746.612L424.06 732.207" stroke="#1D3557" stroke-linecap="round" stroke-linejoin="round"/>
<path d="M87.2139 835.307H826.786" stroke="#1D3557" stroke-linecap="round" stroke-linejoin="round"/>
<path d="M462.466 449.834L450.419 679.193L297.8 671.186L299.079 646.874L309.846 441.809L405.944 446.854L462.466 449.834Z" fill="white"/>
<path opacity="0.2" d="M414.829 584.21L380.444 587.043L390.48 630.348L299.08 646.874L309.847 441.809L405.945 446.854L414.829 584.21Z" fill="#1D3557" fill-opacity="0.7"/>
<path d="M462.466 449.834L450.419 679.193L297.8 671.186L299.079 646.874L309.846 441.809L405.944 446.854L462.466 449.834Z" stroke="#1D3557" stroke-linecap="round" stroke-linejoin="round"/>
<path d="M320.613 457.494L360.336 459.578" stroke="#1D3557" stroke-width="2" stroke-linecap="round" stroke-linejoin="round"/>
<path d="M320.211 465.117L347.229 466.543" stroke="#1D3557" stroke-width="2" stroke-linecap="round" stroke-linejoin="round"/>
<path d="M328.949 483.635L443.199 489.631" stroke="#1D3557" stroke-width="2" stroke-linecap="round" stroke-linejoin="round"/>
<path d="M328.547 491.258L442.797 497.254" stroke="#1D3557" stroke-width="2" stroke-linecap="round" stroke-linejoin="round"/>
<path d="M328.09 500.16L425.522 505.26" stroke="#1D3557" stroke-width="2" stroke-linecap="round" stroke-linejoin="round"/>
<path d="M337.41 508.774L328.118 508.285L327.63 517.577L336.921 518.065L337.41 508.774Z" stroke="#1D3557" stroke-linecap="round" stroke-linejoin="round"/>
<path d="M354.267 509.657L344.976 509.168L344.487 518.46L353.779 518.948L354.267 509.657Z" stroke="#1D3557" stroke-linecap="round" stroke-linejoin="round"/>
<path d="M371.088 510.559L361.796 510.07L361.307 519.362L370.599 519.851L371.088 510.559Z" stroke="#1D3557" stroke-linecap="round" stroke-linejoin="round"/>
<path d="M387.927 511.442L378.636 510.953L378.147 520.245L387.439 520.733L387.927 511.442Z" stroke="#1D3557" stroke-linecap="round" stroke-linejoin="round"/>
<path d="M322.863 483.305C322.851 483.611 322.778 483.912 322.649 484.189C322.52 484.467 322.337 484.716 322.111 484.921C321.885 485.127 321.62 485.286 321.331 485.388C321.043 485.491 320.737 485.535 320.431 485.517C320.126 485.502 319.828 485.426 319.552 485.295C319.276 485.164 319.029 484.98 318.825 484.753C318.411 484.296 318.197 483.693 318.229 483.077C318.26 482.461 318.535 481.883 318.993 481.47C319.45 481.057 320.053 480.843 320.669 480.874C320.973 480.888 321.272 480.962 321.547 481.092C321.822 481.223 322.069 481.406 322.273 481.632C322.477 481.858 322.634 482.122 322.735 482.41C322.837 482.697 322.88 483.001 322.863 483.305Z" fill="#1D3557"/>
<path d="M326.609 528.109L440.859 534.105" stroke="#1D3557" stroke-width="2" stroke-linecap="round" stroke-linejoin="round"/>
<path d="M326.207 535.732L440.457 541.728" stroke="#1D3557" stroke-width="2" stroke-linecap="round" stroke-linejoin="round"/>
<path d="M325.75 544.635L423.182 549.735" stroke="#1D3557" stroke-width="2" stroke-linecap="round" stroke-linejoin="round"/>
<path d="M335.078 553.266L325.786 552.777L325.298 562.069L334.589 562.558L335.078 553.266Z" stroke="#1D3557" stroke-linecap="round" stroke-linejoin="round"/>
<path d="M351.917 554.131L342.625 553.643L342.136 562.934L351.428 563.423L351.917 554.131Z" stroke="#1D3557" stroke-linecap="round" stroke-linejoin="round"/>
<path d="M368.738 555.032L359.446 554.543L358.958 563.835L368.249 564.323L368.738 555.032Z" stroke="#1D3557" stroke-linecap="round" stroke-linejoin="round"/>
<path d="M385.578 555.914L376.286 555.426L375.798 564.717L385.089 565.206L385.578 555.914Z" stroke="#1D3557" stroke-linecap="round" stroke-linejoin="round"/>
<path d="M320.54 527.78C320.526 528.086 320.452 528.387 320.321 528.665C320.19 528.942 320.005 529.191 319.777 529.397C319.549 529.602 319.283 529.761 318.994 529.863C318.704 529.965 318.397 530.009 318.091 529.991C317.628 529.969 317.183 529.81 316.81 529.534C316.438 529.258 316.156 528.878 316.001 528.441C315.845 528.005 315.822 527.532 315.935 527.083C316.048 526.634 316.292 526.228 316.636 525.918C316.98 525.607 317.408 525.406 317.867 525.339C318.325 525.272 318.793 525.343 319.211 525.542C319.629 525.742 319.979 526.061 320.215 526.459C320.452 526.857 320.565 527.317 320.54 527.78Z" fill="#1D3557"/>
<path d="M324.288 572.586L438.52 578.582" stroke="#1D3557" stroke-width="2" stroke-linecap="round" stroke-linejoin="round"/>
<path d="M323.886 580.207L438.117 586.203" stroke="#1D3557" stroke-width="2" stroke-linecap="round" stroke-linejoin="round"/>
<path d="M323.41 589.092L420.843 594.21" stroke="#1D3557" stroke-width="2" stroke-linecap="round" stroke-linejoin="round"/>
<path d="M332.746 597.723L323.454 597.234L322.966 606.526L332.257 607.015L332.746 597.723Z" stroke="#1D3557" stroke-linecap="round" stroke-linejoin="round"/>
<path d="M351.569 598.553L342.265 598.088L341.799 607.392L351.104 607.857L351.569 598.553Z" stroke="#1D3557" stroke-width="1.00125" stroke-linecap="round" stroke-linejoin="round"/>
<path d="M366.405 599.506L357.113 599.018L356.625 608.309L365.916 608.798L366.405 599.506Z" stroke="#1D3557" stroke-linecap="round" stroke-linejoin="round"/>
<path d="M383.263 600.371L373.972 599.883L373.483 609.174L382.775 609.663L383.263 600.371Z" stroke="#1D3557" stroke-linecap="round" stroke-linejoin="round"/>
<path d="M318.201 572.256C318.187 572.563 318.112 572.864 317.981 573.141C317.85 573.419 317.665 573.668 317.437 573.874C317.21 574.079 316.943 574.238 316.654 574.34C316.364 574.442 316.058 574.486 315.751 574.468C315.43 574.475 315.11 574.416 314.813 574.294C314.515 574.172 314.246 573.99 314.022 573.759C313.798 573.528 313.624 573.254 313.511 572.953C313.398 572.652 313.348 572.331 313.364 572.01C313.381 571.689 313.463 571.374 313.606 571.087C313.75 570.799 313.951 570.544 314.197 570.337C314.443 570.13 314.729 569.976 315.038 569.885C315.346 569.794 315.67 569.767 315.989 569.807C316.295 569.821 316.596 569.896 316.874 570.027C317.151 570.158 317.4 570.342 317.606 570.57C317.812 570.798 317.97 571.064 318.072 571.354C318.174 571.643 318.218 571.95 318.201 572.256Z" fill="#1D3557"/>
<path d="M321.875 618.32L436.107 624.335" stroke="#1D3557" stroke-width="2" stroke-linecap="round" stroke-linejoin="round"/>
<path d="M321.473 625.943L435.723 631.957" stroke="#1D3557" stroke-width="2" stroke-linecap="round" stroke-linejoin="round"/>
<path d="M321.016 634.846L418.448 639.964" stroke="#1D3557" stroke-width="2" stroke-linecap="round" stroke-linejoin="round"/>
<path d="M330.31 643.469L321.019 642.98L320.53 652.272L329.822 652.761L330.31 643.469Z" stroke="#1D3557" stroke-linecap="round" stroke-linejoin="round"/>
<path d="M347.185 644.354L337.894 643.865L337.405 653.157L346.697 653.646L347.185 644.354Z" stroke="#1D3557" stroke-linecap="round" stroke-linejoin="round"/>
<path d="M364.025 645.237L354.733 644.748L354.245 654.04L363.536 654.528L364.025 645.237Z" stroke="#1D3557" stroke-linecap="round" stroke-linejoin="round"/>
<path d="M380.864 646.137L371.572 645.648L371.084 654.94L380.375 655.429L380.864 646.137Z" stroke="#1D3557" stroke-linecap="round" stroke-linejoin="round"/>
<path d="M315.787 618.01C315.753 618.625 315.476 619.202 315.017 619.614C314.557 620.025 313.953 620.237 313.338 620.203C312.722 620.169 312.145 619.892 311.734 619.433C311.322 618.973 311.11 618.37 311.144 617.754C311.178 617.138 311.455 616.561 311.915 616.15C312.374 615.738 312.978 615.526 313.594 615.56C314.209 615.594 314.786 615.871 315.198 616.331C315.609 616.79 315.821 617.394 315.787 618.01Z" fill="#1D3557"/>
<path d="M331.289 512.151L332.496 514.235L337.449 508.77" stroke="#1D3557" stroke-width="2" stroke-linecap="round" stroke-linejoin="round"/>
<path d="M362.658 557.833L363.865 559.917L368.819 554.451" stroke="#1D3557" stroke-width="2" stroke-linecap="round" stroke-linejoin="round"/>
<path d="M378.396 604.775L379.603 606.859L384.557 601.375" stroke="#1D3557" stroke-width="2" stroke-linecap="round" stroke-linejoin="round"/>
<path d="M341.105 646.674L342.312 648.739L347.266 643.273" stroke="#1D3557" stroke-width="2" stroke-linecap="round" stroke-linejoin="round"/>
<path d="M361.049 614.282L213.803 655.211L152.31 433.895L213.273 416.949L299.555 392.984L355.346 593.772L361.049 614.282Z" fill="white"/>
<path opacity="0.2" d="M355.346 593.772L241.498 601.139L213.273 416.949L299.555 392.984L355.346 593.772Z" fill="#1D3557" fill-opacity="0.7"/>
<path d="M361.049 614.282L213.803 655.211L152.31 433.895L213.273 416.949L299.555 392.984L355.345 593.772L361.049 614.282Z" stroke="#1D3557" stroke-linecap="round" stroke-linejoin="round"/>
<path d="M167.519 445.338L205.833 434.699" stroke="#1D3557" stroke-width="2" stroke-linecap="round" stroke-linejoin="round"/>
<path d="M169.548 452.704L195.615 445.465" stroke="#1D3557" stroke-width="2" stroke-linecap="round" stroke-linejoin="round"/>
<path d="M183.715 467.474L293.943 436.855" stroke="#1D3557" stroke-width="2" stroke-linecap="round" stroke-linejoin="round"/>
<path d="M185.762 474.824L295.99 444.205" stroke="#1D3557" stroke-width="2" stroke-linecap="round" stroke-linejoin="round"/>
<path d="M188.138 483.415L282.152 457.293" stroke="#1D3557" stroke-width="2" stroke-linecap="round" stroke-linejoin="round"/>
<path d="M199.756 488.616L190.791 491.107L193.282 500.072L202.247 497.581L199.756 488.616Z" stroke="#1D3557" stroke-linecap="round" stroke-linejoin="round"/>
<path d="M216.014 484.081L207.049 486.572L209.54 495.537L218.505 493.046L216.014 484.081Z" stroke="#1D3557" stroke-linecap="round" stroke-linejoin="round"/>
<path d="M232.272 479.565L223.308 482.057L225.799 491.022L234.764 488.53L232.272 479.565Z" stroke="#1D3557" stroke-linecap="round" stroke-linejoin="round"/>
<path d="M248.495 475.056L239.53 477.547L242.021 486.512L250.986 484.02L248.495 475.056Z" stroke="#1D3557" stroke-linecap="round" stroke-linejoin="round"/>
<path d="M177.847 469.101C177.97 469.543 177.96 470.011 177.817 470.447C177.675 470.883 177.406 471.267 177.045 471.551C176.685 471.834 176.248 472.005 175.791 472.04C175.333 472.076 174.876 471.975 174.476 471.751C174.075 471.526 173.751 471.189 173.542 470.78C173.334 470.371 173.251 469.91 173.305 469.454C173.359 468.999 173.546 468.569 173.843 468.22C174.141 467.871 174.535 467.618 174.977 467.492C175.57 467.329 176.205 467.406 176.742 467.707C177.279 468.008 177.676 468.509 177.847 469.101Z" fill="#1D3557"/>
<path d="M195.633 510.377L305.861 479.758" stroke="#1D3557" stroke-width="2" stroke-linecap="round" stroke-linejoin="round"/>
<path d="M197.681 517.745L307.909 487.107" stroke="#1D3557" stroke-width="2" stroke-linecap="round" stroke-linejoin="round"/>
<path d="M200.075 526.319L294.071 500.197" stroke="#1D3557" stroke-width="2" stroke-linecap="round" stroke-linejoin="round"/>
<path d="M211.685 531.515L202.72 534.006L205.211 542.971L214.176 540.479L211.685 531.515Z" stroke="#1D3557" stroke-linecap="round" stroke-linejoin="round"/>
<path d="M227.925 526.997L218.96 529.488L221.451 538.453L230.416 535.962L227.925 526.997Z" stroke="#1D3557" stroke-linecap="round" stroke-linejoin="round"/>
<path d="M244.184 522.483L235.219 524.975L237.71 533.939L246.675 531.448L244.184 522.483Z" stroke="#1D3557" stroke-linecap="round" stroke-linejoin="round"/>
<path d="M260.441 517.95L251.477 520.441L253.968 529.406L262.933 526.915L260.441 517.95Z" stroke="#1D3557" stroke-linecap="round" stroke-linejoin="round"/>
<path d="M189.784 512.022C189.908 512.469 189.898 512.942 189.753 513.382C189.609 513.823 189.337 514.21 188.972 514.496C188.607 514.781 188.166 514.952 187.703 514.986C187.241 515.02 186.779 514.917 186.376 514.688C185.973 514.46 185.647 514.117 185.439 513.703C185.231 513.288 185.151 512.822 185.209 512.362C185.266 511.902 185.459 511.47 185.762 511.12C186.066 510.77 186.467 510.518 186.914 510.396C187.209 510.312 187.518 510.289 187.822 510.325C188.127 510.362 188.421 510.459 188.688 510.611C188.955 510.762 189.189 510.964 189.377 511.207C189.565 511.449 189.703 511.726 189.784 512.022Z" fill="#1D3557"/>
<path d="M207.57 553.299L317.78 522.662" stroke="#1D3557" stroke-width="2" stroke-linecap="round" stroke-linejoin="round"/>
<path d="M209.617 560.648L319.827 530.029" stroke="#1D3557" stroke-width="2" stroke-linecap="round" stroke-linejoin="round"/>
<path d="M211.994 569.239L306.008 543.117" stroke="#1D3557" stroke-width="2" stroke-linecap="round" stroke-linejoin="round"/>
<path d="M223.596 574.411L214.631 576.902L217.122 585.867L226.087 583.376L223.596 574.411Z" stroke="#1D3557" stroke-linecap="round" stroke-linejoin="round"/>
<path d="M239.854 569.897L230.89 572.389L233.381 581.353L242.346 578.862L239.854 569.897Z" stroke="#1D3557" stroke-linecap="round" stroke-linejoin="round"/>
<path d="M256.095 565.382L247.13 567.873L249.621 576.838L258.586 574.347L256.095 565.382Z" stroke="#1D3557" stroke-linecap="round" stroke-linejoin="round"/>
<path d="M272.352 560.866L263.388 563.357L265.879 572.322L274.844 569.831L272.352 560.866Z" stroke="#1D3557" stroke-linecap="round" stroke-linejoin="round"/>
<path d="M201.702 554.927C201.826 555.373 201.816 555.846 201.671 556.287C201.527 556.727 201.255 557.114 200.89 557.4C200.525 557.685 200.084 557.856 199.621 557.89C199.159 557.925 198.697 557.821 198.294 557.593C197.891 557.364 197.565 557.021 197.357 556.607C197.149 556.193 197.069 555.726 197.127 555.266C197.184 554.807 197.377 554.374 197.68 554.024C197.984 553.674 198.385 553.422 198.832 553.3C199.127 553.217 199.436 553.193 199.74 553.23C200.045 553.267 200.339 553.364 200.606 553.515C200.873 553.666 201.107 553.869 201.295 554.111C201.483 554.353 201.621 554.631 201.702 554.927Z" fill="#1D3557"/>
<path d="M219.836 597.427L330.046 566.809" stroke="#1D3557" stroke-width="2" stroke-linecap="round" stroke-linejoin="round"/>
<path d="M221.865 604.794L332.094 574.156" stroke="#1D3557" stroke-width="2" stroke-linecap="round" stroke-linejoin="round"/>
<path d="M224.26 613.368L318.274 587.246" stroke="#1D3557" stroke-width="2" stroke-linecap="round" stroke-linejoin="round"/>
<path d="M235.863 618.562L226.898 621.053L229.39 630.018L238.354 627.526L235.863 618.562Z" stroke="#1D3557" stroke-linecap="round" stroke-linejoin="round"/>
<path d="M252.122 614.046L243.157 616.537L245.648 625.502L254.613 623.011L252.122 614.046Z" stroke="#1D3557" stroke-linecap="round" stroke-linejoin="round"/>
<path d="M268.381 609.532L259.416 612.023L261.907 620.988L270.872 618.497L268.381 609.532Z" stroke="#1D3557" stroke-linecap="round" stroke-linejoin="round"/>
<path d="M284.62 605.015L275.655 607.506L278.146 616.471L287.111 613.979L284.62 605.015Z" stroke="#1D3557" stroke-linecap="round" stroke-linejoin="round"/>
<path d="M213.968 599.054C214.097 599.5 214.089 599.974 213.948 600.416C213.806 600.858 213.536 601.247 213.173 601.536C212.809 601.824 212.368 601.997 211.906 602.034C211.443 602.071 210.98 601.97 210.576 601.743C210.171 601.516 209.843 601.174 209.633 600.76C209.423 600.346 209.341 599.88 209.397 599.419C209.453 598.959 209.645 598.525 209.948 598.174C210.251 597.822 210.651 597.569 211.098 597.446C211.392 597.362 211.7 597.338 212.004 597.373C212.307 597.409 212.601 597.504 212.867 597.654C213.134 597.803 213.369 598.004 213.557 598.244C213.746 598.485 213.886 598.76 213.968 599.054Z" fill="#1D3557"/>
<path d="M210.294 489.501L212.104 491.091L215.065 484.328" stroke="#1D3557" stroke-width="2" stroke-linecap="round" stroke-linejoin="round"/>
<path d="M205.888 537.378L207.697 538.969L210.641 532.205" stroke="#1D3557" stroke-width="2" stroke-linecap="round" stroke-linejoin="round"/>
<path d="M217.807 579.841L219.616 581.432L222.559 574.668" stroke="#1D3557" stroke-width="2" stroke-linecap="round" stroke-linejoin="round"/>
<path d="M262.538 614.628L264.348 616.219L267.309 609.455" stroke="#1D3557" stroke-width="2" stroke-linecap="round" stroke-linejoin="round"/>
<path d="M375.431 341.862L223.312 356.482L245.286 585.117L397.406 570.496L375.431 341.862Z" fill="white" stroke="#1D3557" stroke-linecap="round" stroke-linejoin="round"/>
<path d="M236.27 370.427L275.864 366.625" stroke="#1D3557" stroke-width="2" stroke-linecap="round" stroke-linejoin="round"/>
<path d="M237.001 378.031L263.927 375.436" stroke="#1D3557" stroke-width="2" stroke-linecap="round" stroke-linejoin="round"/>
<path d="M248.371 395.049L362.237 384.1" stroke="#1D3557" stroke-width="2" stroke-linecap="round" stroke-linejoin="round"/>
<path d="M249.103 402.635L362.969 391.703" stroke="#1D3557" stroke-width="2" stroke-linecap="round" stroke-linejoin="round"/>
<path d="M249.961 411.501L347.083 402.178" stroke="#1D3557" stroke-width="2" stroke-linecap="round" stroke-linejoin="round"/>
<path d="M260.505 418.633L251.243 419.523L252.133 428.786L261.395 427.895L260.505 418.633Z" stroke="#1D3557" stroke-linecap="round" stroke-linejoin="round"/>
<path d="M277.293 417.016L268.031 417.906L268.921 427.168L278.183 426.278L277.293 417.016Z" stroke="#1D3557" stroke-linecap="round" stroke-linejoin="round"/>
<path d="M294.08 415.416L284.818 416.307L285.709 425.569L294.97 424.678L294.08 415.416Z" stroke="#1D3557" stroke-linecap="round" stroke-linejoin="round"/>
<path d="M310.867 413.782L301.605 414.672L302.496 423.934L311.757 423.044L310.867 413.782Z" stroke="#1D3557" stroke-linecap="round" stroke-linejoin="round"/>
<path d="M242.321 395.635C242.366 396.096 242.273 396.56 242.054 396.969C241.835 397.377 241.5 397.711 241.091 397.929C240.681 398.147 240.217 398.238 239.756 398.191C239.295 398.144 238.858 397.961 238.501 397.666C238.144 397.37 237.882 396.976 237.75 396.531C237.617 396.087 237.62 395.614 237.757 395.171C237.894 394.728 238.159 394.336 238.52 394.045C238.88 393.753 239.318 393.575 239.78 393.533C240.085 393.503 240.393 393.533 240.686 393.623C240.98 393.712 241.252 393.859 241.489 394.054C241.725 394.25 241.92 394.49 242.063 394.761C242.206 395.033 242.293 395.33 242.321 395.635Z" fill="#1D3557"/>
<path d="M252.63 439.379L366.496 428.447" stroke="#1D3557" stroke-width="2" stroke-linecap="round" stroke-linejoin="round"/>
<path d="M253.361 446.983L367.227 436.033" stroke="#1D3557" stroke-width="2" stroke-linecap="round" stroke-linejoin="round"/>
<path d="M254.221 455.849L351.342 446.508" stroke="#1D3557" stroke-width="2" stroke-linecap="round" stroke-linejoin="round"/>
<path d="M264.764 462.954L255.502 463.844L256.392 473.105L265.654 472.215L264.764 462.954Z" stroke="#1D3557" stroke-linecap="round" stroke-linejoin="round"/>
<path d="M281.551 461.356L272.289 462.246L273.179 471.508L282.441 470.618L281.551 461.356Z" stroke="#1D3557" stroke-linecap="round" stroke-linejoin="round"/>
<path d="M298.339 459.741L289.077 460.631L289.967 469.893L299.229 469.003L298.339 459.741Z" stroke="#1D3557" stroke-linecap="round" stroke-linejoin="round"/>
<path d="M315.127 458.139L305.865 459.029L306.755 468.291L316.017 467.401L315.127 458.139Z" stroke="#1D3557" stroke-linecap="round" stroke-linejoin="round"/>
<path d="M246.58 439.963C246.625 440.425 246.532 440.889 246.313 441.297C246.094 441.706 245.758 442.04 245.349 442.257C244.94 442.475 244.475 442.566 244.014 442.519C243.553 442.472 243.117 442.29 242.759 441.994C242.402 441.699 242.141 441.304 242.009 440.86C241.876 440.416 241.879 439.942 242.016 439.5C242.153 439.057 242.418 438.665 242.778 438.373C243.139 438.081 243.577 437.903 244.039 437.861C244.654 437.805 245.266 437.995 245.743 438.389C246.219 438.782 246.519 439.348 246.58 439.963Z" fill="#1D3557"/>
<path d="M256.89 483.709L370.756 472.777" stroke="#1D3557" stroke-width="2" stroke-linecap="round" stroke-linejoin="round"/>
<path d="M257.621 491.311L371.487 480.361" stroke="#1D3557" stroke-width="2" stroke-linecap="round" stroke-linejoin="round"/>
<path d="M258.479 500.177L355.601 490.836" stroke="#1D3557" stroke-width="2" stroke-linecap="round" stroke-linejoin="round"/>
<path d="M269.022 507.293L259.76 508.184L260.65 517.446L269.912 516.556L269.022 507.293Z" stroke="#1D3557" stroke-linecap="round" stroke-linejoin="round"/>
<path d="M285.791 505.678L276.529 506.568L277.419 515.83L286.681 514.94L285.791 505.678Z" stroke="#1D3557" stroke-linecap="round" stroke-linejoin="round"/>
<path d="M302.597 504.061L293.335 504.951L294.225 514.213L303.487 513.323L302.597 504.061Z" stroke="#1D3557" stroke-linecap="round" stroke-linejoin="round"/>
<path d="M319.385 502.461L310.123 503.352L311.013 512.614L320.275 511.723L319.385 502.461Z" stroke="#1D3557" stroke-linecap="round" stroke-linejoin="round"/>
<path d="M250.821 484.293C250.863 484.751 250.767 485.21 250.548 485.613C250.328 486.016 249.994 486.346 249.588 486.559C249.181 486.772 248.721 486.86 248.264 486.812C247.807 486.763 247.376 486.581 247.023 486.287C246.67 485.993 246.412 485.601 246.282 485.161C246.153 484.72 246.156 484.251 246.293 483.813C246.429 483.374 246.693 482.986 247.05 482.698C247.407 482.409 247.841 482.233 248.298 482.191C248.602 482.164 248.908 482.196 249.199 482.287C249.491 482.377 249.761 482.525 249.995 482.72C250.229 482.915 250.423 483.154 250.565 483.424C250.706 483.694 250.793 483.99 250.821 484.293Z" fill="#1D3557"/>
<path d="M261.277 529.317L375.143 518.367" stroke="#1D3557" stroke-width="2" stroke-linecap="round" stroke-linejoin="round"/>
<path d="M262.008 536.902L375.874 525.971" stroke="#1D3557" stroke-width="2" stroke-linecap="round" stroke-linejoin="round"/>
<path d="M262.849 545.766L359.97 536.443" stroke="#1D3557" stroke-width="2" stroke-linecap="round" stroke-linejoin="round"/>
<path d="M273.401 552.897L264.14 553.787L265.03 563.049L274.292 562.159L273.401 552.897Z" stroke="#1D3557" stroke-linecap="round" stroke-linejoin="round"/>
<path d="M290.207 551.28L280.945 552.17L281.835 561.432L291.097 560.542L290.207 551.28Z" stroke="#1D3557" stroke-linecap="round" stroke-linejoin="round"/>
<path d="M306.976 549.663L297.714 550.553L298.604 559.815L307.866 558.924L306.976 549.663Z" stroke="#1D3557" stroke-linecap="round" stroke-linejoin="round"/>
<path d="M323.763 548.045L314.501 548.936L315.391 558.197L324.653 557.307L323.763 548.045Z" stroke="#1D3557" stroke-linecap="round" stroke-linejoin="round"/>
<path d="M255.207 529.882C255.22 530.471 255.009 531.043 254.618 531.484C254.227 531.924 253.684 532.201 253.097 532.259C252.511 532.317 251.925 532.151 251.455 531.795C250.985 531.439 250.667 530.92 250.564 530.339C250.508 529.724 250.698 529.112 251.092 528.636C251.486 528.16 252.052 527.859 252.667 527.799C252.97 527.768 253.277 527.798 253.569 527.887C253.861 527.975 254.133 528.12 254.369 528.314C254.605 528.507 254.801 528.745 254.945 529.015C255.088 529.284 255.178 529.579 255.207 529.882Z" fill="#1D3557"/>
<path d="M254.896 422.908L256.395 424.79L260.49 418.648" stroke="#1D3557" stroke-width="2" stroke-linecap="round" stroke-linejoin="round"/>
<path d="M292.682 463.452L294.181 465.335L298.257 459.193" stroke="#1D3557" stroke-width="2" stroke-linecap="round" stroke-linejoin="round"/>
<path d="M280.233 510.324L281.732 512.207L285.827 506.064" stroke="#1D3557" stroke-width="2" stroke-linecap="round" stroke-linejoin="round"/>
<path d="M317.944 552.349L319.443 554.232L323.538 548.09" stroke="#1D3557" stroke-width="2" stroke-linecap="round" stroke-linejoin="round"/>
<path d="M561.47 251.734H467.017C463.682 251.734 460.483 253.059 458.124 255.418C455.765 257.777 454.44 260.975 454.44 264.311V345.492C454.44 348.828 455.765 352.027 458.124 354.385C460.483 356.744 463.682 358.069 467.017 358.069H508.878L532.862 386.97L526.847 358.069H561.47C564.796 358.054 567.981 356.723 570.327 354.366C572.674 352.009 573.992 348.818 573.992 345.492V264.311C573.992 260.985 572.674 257.794 570.327 255.437C567.981 253.08 564.796 251.749 561.47 251.734Z" fill="white" stroke="#1D3557" stroke-linecap="round" stroke-linejoin="round"/>
<path d="M521.803 296.264V287.672L515.368 287.124C514.99 285.78 514.457 284.486 513.778 283.267L517.927 278.331L511.84 272.262L506.904 276.412C505.687 275.729 504.392 275.195 503.047 274.821L502.499 268.387H493.907L493.359 274.821C492.014 275.195 490.719 275.729 489.502 276.412L484.566 272.262L478.479 278.331L482.592 283.34C481.907 284.558 481.367 285.853 480.983 287.197L474.549 287.745V296.337L480.983 296.904C481.367 298.248 481.907 299.542 482.592 300.761L478.424 305.696L484.511 311.765L489.447 307.616C490.665 308.298 491.959 308.832 493.304 309.206L493.853 315.641H502.444L502.993 309.206C504.337 308.832 505.632 308.298 506.85 307.616L511.785 311.765L517.872 305.696L513.723 300.761C514.402 299.541 514.936 298.247 515.313 296.904L521.803 296.264ZM498.203 301.967C496.225 301.971 494.29 301.387 492.643 300.291C490.996 299.194 489.712 297.634 488.952 295.807C488.192 293.98 487.992 291.969 488.376 290.028C488.759 288.088 489.71 286.304 491.108 284.904C492.506 283.504 494.287 282.55 496.227 282.162C498.168 281.775 500.179 281.972 502.007 282.728C503.835 283.484 505.398 284.766 506.498 286.411C507.597 288.056 508.184 289.99 508.184 291.968C508.186 293.28 507.93 294.58 507.43 295.793C506.929 297.006 506.194 298.109 505.267 299.037C504.34 299.966 503.239 300.703 502.027 301.206C500.815 301.708 499.515 301.967 498.203 301.967Z" fill="#457B9D"/>
<path d="M550.228 315.439V309.334L545.639 308.932C545.373 307.975 544.992 307.055 544.506 306.19L547.467 302.68L543.153 298.366L539.625 301.309C538.758 300.827 537.838 300.447 536.883 300.175L536.499 295.605H530.376L529.992 300.175C529.031 300.447 528.105 300.827 527.232 301.309L523.722 298.366L519.408 302.68L522.351 306.19C521.87 307.056 521.496 307.976 521.236 308.932L516.647 309.334V315.439L521.236 315.841C521.493 316.798 521.867 317.719 522.351 318.583L519.408 322.093L523.722 326.426L527.232 323.464C528.102 323.954 529.029 324.334 529.992 324.598L530.376 329.186H536.499L536.883 324.598C537.841 324.334 538.762 323.954 539.625 323.464L543.153 326.426L547.467 322.093L544.506 318.583C544.995 317.72 545.376 316.799 545.639 315.841L550.228 315.439ZM533.428 319.497C532.022 319.497 530.647 319.08 529.478 318.299C528.308 317.518 527.397 316.407 526.859 315.108C526.321 313.808 526.18 312.379 526.454 310.999C526.729 309.62 527.406 308.353 528.4 307.358C529.395 306.364 530.662 305.687 532.041 305.412C533.421 305.138 534.85 305.279 536.15 305.817C537.449 306.355 538.56 307.267 539.341 308.436C540.122 309.605 540.539 310.98 540.539 312.386C540.539 314.272 539.79 316.081 538.457 317.415C537.123 318.748 535.314 319.497 533.428 319.497Z" fill="#457B9D"/>
<path d="M520.322 329.679V325.383L517.05 325.091C516.862 324.408 516.592 323.751 516.245 323.135L518.347 320.649L515.276 317.559L512.772 319.662C512.156 319.327 511.507 319.057 510.834 318.857L510.542 315.604H506.191L505.917 318.857C505.238 319.054 504.582 319.324 503.961 319.662L501.457 317.559L498.386 320.649L500.488 323.135C500.148 323.755 499.879 324.411 499.684 325.091L496.43 325.383V329.716L499.684 330.008C499.879 330.688 500.148 331.344 500.488 331.964L498.386 334.45L501.457 337.539L503.961 335.437C504.582 335.775 505.238 336.045 505.917 336.242L506.191 339.495H510.542L510.834 336.242C511.507 336.042 512.156 335.772 512.772 335.437L515.276 337.539L518.347 334.45L516.245 331.964C516.592 331.347 516.862 330.691 517.05 330.008L520.322 329.679ZM508.367 332.567C507.364 332.567 506.385 332.27 505.551 331.713C504.718 331.155 504.069 330.364 503.687 329.437C503.304 328.511 503.205 327.492 503.402 326.509C503.598 325.526 504.083 324.624 504.793 323.917C505.503 323.209 506.407 322.729 507.39 322.535C508.373 322.342 509.392 322.445 510.317 322.831C511.242 323.217 512.031 323.869 512.586 324.704C513.14 325.539 513.434 326.52 513.43 327.522C513.425 328.862 512.89 330.145 511.941 331.091C510.991 332.036 509.706 332.567 508.367 332.567Z" fill="#457B9D"/>
<path d="M511.712 563.701L585.344 835.305H596.348L522.735 563.701H511.712Z" fill="#757575" stroke="#1D3557" stroke-linecap="round" stroke-linejoin="round"/>
<path d="M677.548 758.309H537.98V769.679H677.548V758.309Z" fill="#999999" stroke="#1D3557" stroke-linecap="round" stroke-linejoin="round"/>
<path d="M752.002 502.701L661.827 835.397H650.859L741.016 502.701C744.343 490.435 736.72 480.454 724.016 480.454H646.326C633.639 480.454 620.587 490.435 617.26 502.701L527.067 835.397H516.099L606.256 502.701C611.191 484.549 630.422 469.797 649.214 469.797H726.922C745.659 469.797 756.92 484.531 752.002 502.701Z" fill="#757575" stroke="#1D3557" stroke-linecap="round" stroke-linejoin="round"/>
<path d="M753.428 502.791L731.053 585.38C729.973 588.855 727.843 591.91 724.956 594.126C722.069 596.342 718.567 597.61 714.93 597.755H587.263C585.725 597.871 584.182 597.602 582.775 596.971C581.367 596.34 580.14 595.367 579.203 594.142C578.266 592.917 577.65 591.477 577.41 589.953C577.171 588.429 577.315 586.87 577.831 585.416L600.224 502.827C601.313 499.36 603.446 496.314 606.332 494.106C609.218 491.897 612.716 490.634 616.347 490.488H743.996C745.528 490.379 747.064 490.652 748.464 491.283C749.865 491.913 751.088 492.882 752.023 494.101C752.958 495.32 753.575 496.752 753.821 498.269C754.066 499.785 753.931 501.339 753.428 502.791Z" fill="#457B9D"/>
<path opacity="0.2" d="M753.428 502.792L731.054 585.381C729.973 588.856 727.843 591.911 724.956 594.127C722.069 596.343 718.567 597.611 714.931 597.756H587.263C585.725 597.872 584.182 597.603 582.775 596.972C581.367 596.341 580.14 595.369 579.203 594.143C578.266 592.918 577.65 591.478 577.41 589.954C577.171 588.431 577.315 586.871 577.831 585.417L600.224 502.828C601.313 499.361 603.446 496.315 606.332 494.107C609.218 491.898 612.716 490.635 616.347 490.489H682.356C710.891 519.737 707.253 573.645 705.389 589.914C708.367 589.198 711.111 587.724 713.352 585.636C715.594 583.548 717.259 580.916 718.185 577.996L740.523 495.388C740.98 493.79 741.074 492.11 740.797 490.471H743.996C745.53 490.361 747.068 490.634 748.471 491.265C749.874 491.897 751.098 492.867 752.034 494.089C752.969 495.31 753.586 496.745 753.829 498.264C754.073 499.783 753.935 501.339 753.428 502.792Z" fill="#1D3557" fill-opacity="0.7"/>
<path d="M753.428 502.791L731.053 585.38C729.973 588.855 727.843 591.91 724.956 594.126C722.069 596.342 718.567 597.61 714.93 597.755H587.263C585.725 597.871 584.182 597.602 582.775 596.971C581.367 596.34 580.14 595.367 579.203 594.142C578.266 592.917 577.65 591.477 577.41 589.953C577.171 588.429 577.315 586.87 577.831 585.416L600.224 502.827C601.313 499.36 603.446 496.314 606.332 494.106C609.218 491.897 612.716 490.634 616.347 490.488H743.996C745.528 490.379 747.064 490.652 748.464 491.283C749.865 491.913 751.088 492.882 752.023 494.101C752.958 495.32 753.575 496.752 753.821 498.269C754.066 499.785 753.931 501.339 753.428 502.791V502.791Z" stroke="#1D3557" stroke-linecap="round" stroke-linejoin="round"/>
<path d="M678.371 681.314L720.122 835.305H731.127L689.394 681.314H678.371Z" fill="#757575" stroke="#1D3557" stroke-linecap="round" stroke-linejoin="round"/>
<path d="M689.43 663.564V678.627H525.057V663.564C525.057 660.626 526.224 657.808 528.301 655.731C530.379 653.653 533.196 652.486 536.134 652.486H678.334C680.769 652.484 683.137 653.283 685.073 654.76C687.008 656.237 688.405 658.309 689.046 660.658C689.305 661.605 689.435 662.582 689.43 663.564Z" fill="#457B9D"/>
<path opacity="0.2" d="M689.046 660.731C683.727 666.982 674.185 673.344 657.769 678.7H525.057V663.564C525.057 660.626 526.224 657.808 528.301 655.731C530.379 653.653 533.196 652.486 536.134 652.486H678.334C680.779 652.489 683.154 653.298 685.091 654.789C687.028 656.28 688.418 658.368 689.046 660.731Z" fill="#1D3557" fill-opacity="0.7"/>
<path d="M689.43 663.564V678.627H525.057V663.564C525.057 660.626 526.224 657.808 528.301 655.731C530.379 653.653 533.196 652.486 536.134 652.486H678.334C680.769 652.484 683.137 653.283 685.073 654.76C687.008 656.237 688.405 658.309 689.046 660.658C689.305 661.605 689.435 662.582 689.43 663.564Z" stroke="#1D3557" stroke-linecap="round" stroke-linejoin="round"/>
<path d="M695.006 674.076H520.907C519.181 674.076 517.781 675.476 517.781 677.202V685.081C517.781 686.807 519.181 688.206 520.907 688.206H695.006C696.732 688.206 698.132 686.807 698.132 685.081V677.202C698.132 675.476 696.732 674.076 695.006 674.076Z" fill="#999999" stroke="#1D3557" stroke-linecap="round" stroke-linejoin="round"/>
<path d="M519.719 674.532C511.84 682.556 550.027 808.652 550.027 808.652C545.859 812.308 539.717 813.99 533.904 814.757C528.56 815.422 523.16 815.501 517.799 814.995C517.799 814.995 463.069 682.246 478.132 649.305C493.194 616.365 586.66 601.412 586.66 601.412L590.645 591.54L638.996 584.74L646.984 643.949C646.984 643.949 639.05 644.717 627.114 646.252C595.105 650.311 534.196 659.908 519.719 674.532Z" fill="#1D3557"/>
<path opacity="0.3" d="M550.026 808.725C545.859 812.381 539.716 814.063 533.903 814.83C523.283 775.346 496.247 669.98 506.484 657.092C519.115 641.189 581.632 626.729 581.632 626.729C581.888 618.613 603.806 611.301 603.806 611.301L627.094 646.197C595.086 650.31 534.178 659.871 519.7 674.604C511.84 682.629 550.026 808.725 550.026 808.725Z" fill="#1D3557"/>
<path d="M519.719 674.532C511.84 682.556 550.027 808.652 550.027 808.652C545.859 812.308 539.717 813.99 533.904 814.757C528.56 815.422 523.16 815.501 517.799 814.995C517.799 814.995 463.069 682.246 478.132 649.305C493.194 616.365 586.66 601.412 586.66 601.412L590.645 591.54L638.996 584.74L646.984 643.949C646.984 643.949 639.05 644.717 627.114 646.252C595.105 650.311 534.196 659.908 519.719 674.532Z" stroke="#1D3557" stroke-linecap="round" stroke-linejoin="round"/>
<path d="M492.664 555.181C484.639 553.81 541.764 503.723 541.764 503.723L569.312 522.259C569.312 522.259 522.442 555.272 515.076 556.168C507.709 557.064 492.664 555.181 492.664 555.181Z" fill="white"/>
<path opacity="0.2" d="M492.664 555.181C484.639 553.81 541.764 503.723 541.764 503.723L569.312 522.259C569.312 522.259 522.442 555.272 515.076 556.168C507.709 557.064 492.664 555.181 492.664 555.181Z" fill="#1D3557" fill-opacity="0.7"/>
<path d="M492.664 555.181C484.639 553.81 541.764 503.723 541.764 503.723L569.312 522.259C569.312 522.259 522.442 555.272 515.076 556.168C507.709 557.064 492.664 555.181 492.664 555.181Z" stroke="#1D3557" stroke-linecap="round" stroke-linejoin="round"/>
<path d="M502.7 534.123C502.7 534.123 514.674 537.103 518.348 539.607C522.022 542.111 520.962 551.16 520.962 551.16C520.962 551.16 505.003 546.663 502.7 534.123Z" fill="white" stroke="#1D3557" stroke-linecap="round" stroke-linejoin="round"/>
<path d="M495.059 511.18L517.323 553.882H519.956L498.806 509.078L495.059 511.18Z" fill="#1D3557"/>
<path d="M515.131 542.057C515.131 542.057 501.092 532.076 497.655 532.076C494.218 532.076 483.927 544.232 483.927 550.356C483.927 556.48 506.375 559.825 510.762 554.652C512.956 552.074 508.605 545.859 508.605 545.859C511.215 548.643 514.019 551.239 516.995 553.628C518.823 554.652 522.315 553.317 522.315 553.317C522.315 553.317 517.635 545.823 515.131 542.057Z" fill="white" stroke="#1D3557" stroke-linecap="round" stroke-linejoin="round"/>
<path d="M508.604 556.059C505.364 551.953 501.391 548.482 496.887 545.822" stroke="#1D3557" stroke-linecap="round" stroke-linejoin="round"/>
<path d="M508.604 545.822C508.604 545.822 503.742 541.581 500.47 540.648" stroke="#1D3557" stroke-linecap="round" stroke-linejoin="round"/>
<path d="M493.304 551.215C496.704 552.954 499.984 554.921 503.12 557.101" stroke="#1D3557" stroke-linecap="round" stroke-linejoin="round"/>
<path d="M559.66 481.824C552.476 486.833 520.212 520.011 520.212 520.011C520.212 520.011 535.33 537.213 548.583 539.699L584.503 522.26L559.66 481.824Z" fill="#457B9D" stroke="#1D3557" stroke-linecap="round" stroke-linejoin="round"/>
<path opacity="0.4" d="M559.66 481.824C552.476 486.833 520.212 520.011 520.212 520.011C520.212 520.011 535.33 537.213 548.583 539.699L584.503 522.26L559.66 481.824Z" fill="white" stroke="#1D3557" stroke-linecap="round" stroke-linejoin="round"/>
<path d="M542.313 795.344L557.54 835.395C557.54 835.395 560.063 845.687 514.143 842.433L488.844 840.276L542.313 795.344Z" fill="#457B9D"/>
<path opacity="0.3" d="M542.313 795.344L557.54 835.395C557.54 835.395 560.063 845.687 514.143 842.433L488.844 840.276L542.313 795.344Z" fill="#1D3557"/>
<path d="M542.313 795.344L557.54 835.395C557.54 835.395 560.063 845.687 514.143 842.433L488.844 840.276L542.313 795.344Z" stroke="#1D3557" stroke-linecap="round" stroke-linejoin="round"/>
<path d="M536.536 814.502C536.536 814.502 539.79 830.059 536.536 841.63C536.536 841.63 488.076 849.217 477.236 846.328C466.396 843.44 459.815 838.029 459.486 835.36C459.486 835.36 459.87 827.938 470.729 825.763C481.587 823.588 503.175 822.107 511.712 809.859C520.249 797.611 536.536 814.502 536.536 814.502Z" fill="#457B9D" stroke="#1D3557" stroke-linecap="round" stroke-linejoin="round"/>
<path d="M600.48 589.932C615.963 567.85 687.145 594.429 687.145 594.429C687.145 594.429 693.927 647.588 665.575 661.773C637.223 675.958 596.349 675.19 585.308 686.689L540.375 819.365C540.375 819.365 524.234 826.11 500.763 815.49C500.763 815.49 529.298 715.297 537.67 679.724C545.951 644.517 599.566 620.625 599.566 620.625C596.806 617.358 594.713 613.582 593.406 609.51" fill="#1D3557"/>
<path d="M600.48 589.932C615.963 567.85 687.145 594.429 687.145 594.429C687.145 594.429 693.927 647.588 665.575 661.773C637.223 675.958 596.349 675.19 585.308 686.689L540.375 819.365C540.375 819.365 524.234 826.11 500.763 815.49C500.763 815.49 529.298 715.297 537.67 679.724C545.951 644.517 599.566 620.625 599.566 620.625C596.806 617.358 594.713 613.582 593.406 609.51" stroke="#1D3557" stroke-linecap="round" stroke-linejoin="round"/>
<path d="M672.539 640.75C670.272 642.768 667.885 644.648 665.392 646.38" stroke="white" stroke-linecap="round" stroke-linejoin="round"/>
<path d="M678.371 595.727C684.184 608.34 684.641 624.353 676.543 636.034" stroke="white" stroke-linecap="round" stroke-linejoin="round"/>
<path d="M662.156 597.756C662.156 597.756 660.676 607.481 665.008 611.338C669.34 615.195 682.63 617.151 682.63 617.151" stroke="white" stroke-linecap="round" stroke-linejoin="round"/>
<path d="M603.807 598.193C603.807 598.193 604.41 607.882 600.48 607.425C596.55 606.968 596.349 611.3 596.349 611.3" stroke="white" stroke-linecap="round" stroke-linejoin="round"/>
<path d="M560.611 489.282C560.012 486.84 559.693 484.338 559.66 481.824C559.66 481.824 581.596 463.324 609.839 463.434C643.474 463.544 664.039 474.128 672.265 488.825C685.317 512.077 687.145 594.428 687.145 594.428C687.145 594.428 602.746 607.444 590.645 591.485C588.543 588.707 590.151 569.092 590.151 569.092C590.151 569.092 580.7 544.305 578.708 525.074C578.708 525.074 575.052 520.175 570.976 513.192C567.974 508.156 565.371 502.894 563.188 497.453" fill="#457B9D"/>
<path d="M560.611 489.282C560.012 486.84 559.693 484.338 559.66 481.824C559.66 481.824 581.596 463.324 609.839 463.434C643.474 463.544 664.039 474.128 672.265 488.825C685.317 512.077 687.145 594.429 687.145 594.429C687.145 594.429 602.746 607.444 590.645 591.485C588.543 588.707 590.151 569.092 590.151 569.092C590.151 569.092 580.7 544.305 578.708 525.074C578.708 525.074 575.052 520.175 570.976 513.192C567.974 508.156 565.371 502.894 563.188 497.453" stroke="#1D3557" stroke-linecap="round" stroke-linejoin="round"/>
<g opacity="0.6">
<path d="M560.611 489.282C560.012 486.84 559.693 484.338 559.66 481.824C559.66 481.824 581.596 463.324 609.839 463.434C643.474 463.544 664.039 474.128 672.265 488.825C685.317 512.077 687.145 594.428 687.145 594.428C687.145 594.428 602.746 607.444 590.645 591.485C588.543 588.707 590.151 569.092 590.151 569.092C590.151 569.092 580.7 544.305 578.708 525.074C578.708 525.074 575.052 520.175 570.976 513.192C567.974 508.156 565.371 502.894 563.188 497.453" fill="white"/>
<path d="M560.611 489.282C560.012 486.84 559.693 484.338 559.66 481.824C559.66 481.824 581.596 463.324 609.839 463.434C643.474 463.544 664.039 474.128 672.265 488.825C685.317 512.077 687.145 594.429 687.145 594.429C687.145 594.429 602.746 607.444 590.645 591.485C588.543 588.707 590.151 569.092 590.151 569.092C590.151 569.092 580.7 544.305 578.708 525.074C578.708 525.074 575.052 520.175 570.976 513.192C567.974 508.156 565.371 502.894 563.188 497.453" stroke="#1D3557" stroke-linecap="round" stroke-linejoin="round"/>
</g>
<path d="M592.93 509.078C592.93 509.078 605.817 559.074 603.898 570.079C603.448 573.876 604.082 577.722 605.726 581.175C604.044 582.947 602.963 585.204 602.635 587.625C602.307 590.046 602.749 592.509 603.898 594.665" stroke="#1D3557" stroke-linecap="round" stroke-linejoin="round"/>
<path d="M627.113 550.447C624.811 550.359 622.575 549.652 620.642 548.399L616.821 531.655C624.401 532.347 632.043 531.81 639.452 530.064L643.547 548.344C641.245 548.988 638.907 549.494 636.546 549.862" stroke="#1D3557" stroke-linecap="round" stroke-linejoin="round"/>
<path d="M583.771 515.587C583.771 515.587 572.803 468.863 600.479 463.434C628.155 458.005 633.841 470.929 632.214 479.685C630.038 491.366 607.097 520.011 607.097 520.011L592.93 509.043L583.771 515.587Z" fill="#457B9D" stroke="#1D3557" stroke-linecap="round" stroke-linejoin="round"/>
<path opacity="0.4" d="M583.771 515.587C583.771 515.587 572.803 468.863 600.479 463.434C628.155 458.005 633.841 470.929 632.214 479.685C630.038 491.366 607.097 520.011 607.097 520.011L592.93 509.043L583.771 515.587Z" fill="white" stroke="#1D3557" stroke-linecap="round" stroke-linejoin="round"/>
<path d="M547.468 659.908C547.468 659.908 565.346 639.27 605.708 623.677C605.708 623.677 595.252 620.478 592.912 616.127" stroke="white" stroke-linecap="round" stroke-linejoin="round"/>
<path d="M526.446 723.064L510.104 782.401" stroke="white" stroke-linecap="round" stroke-linejoin="round"/>
<path d="M652.725 552.056C652.725 552.056 660.037 564.395 690.144 563.262C684.539 557.264 677.452 552.851 669.597 550.466C657.295 547.176 652.725 552.056 652.725 552.056Z" fill="#457B9D" stroke="#1D3557" stroke-linecap="round" stroke-linejoin="round"/>
<path d="M535.914 557.01C535.914 557.01 542.897 546.188 549.295 544.013C555.693 541.838 574.485 541.655 577.391 541.582C580.298 541.509 631.939 554.634 656.178 562.713L654.058 522.26L686.633 524.837C686.633 524.837 685.317 574.193 680.253 587.263C675.19 600.334 667.932 597.153 655.557 591.815C606.877 570.848 578.36 556.242 575.71 557.083C573.059 557.924 535.914 557.01 535.914 557.01Z" fill="white" stroke="#1D3557" stroke-linecap="round" stroke-linejoin="round"/>
<path d="M645.923 498.751C645.072 502.105 644.8 505.579 645.119 509.024C646.563 521.674 652.723 552.055 652.723 552.055C652.723 552.055 683.086 556.388 690.142 563.261C690.142 563.261 695.151 523.045 684.951 502.626C674.751 482.207 664.203 479.959 664.203 479.959C657.531 478.314 651.407 484.529 648.025 492.517" fill="#457B9D"/>
<path d="M645.923 498.751C645.072 502.105 644.8 505.579 645.119 509.024C646.563 521.674 652.723 552.055 652.723 552.055C652.723 552.055 683.086 556.388 690.142 563.261C690.142 563.261 695.151 523.045 684.951 502.626C674.751 482.207 664.203 479.959 664.203 479.959C657.531 478.314 651.407 484.529 648.025 492.517" stroke="#1D3557" stroke-linecap="round" stroke-linejoin="round"/>
<g opacity="0.4">
<g opacity="0.4">
<path d="M645.923 498.751C645.072 502.105 644.8 505.579 645.119 509.024C646.563 521.674 652.723 552.055 652.723 552.055C652.723 552.055 683.086 556.388 690.142 563.261C690.142 563.261 695.151 523.045 684.951 502.626C674.751 482.207 664.203 479.959 664.203 479.959C657.531 478.314 651.407 484.529 648.025 492.517" fill="white"/>
<path d="M645.923 498.751C645.072 502.105 644.8 505.579 645.119 509.024C646.563 521.674 652.723 552.055 652.723 552.055C652.723 552.055 683.086 556.388 690.142 563.261C690.142 563.261 695.151 523.045 684.951 502.626C674.751 482.207 664.203 479.959 664.203 479.959C657.531 478.314 651.407 484.529 648.025 492.517" stroke="#1D3557" stroke-linecap="round" stroke-linejoin="round"/>
</g>
</g>
<path d="M556.717 514.398C561.26 518.122 566.564 520.805 572.255 522.259" stroke="#1D3557" stroke-linecap="round" stroke-linejoin="round"/>
<path d="M652.725 514.398C652.725 514.398 663.692 535.128 677.548 539.698" stroke="#1D3557" stroke-linecap="round" stroke-linejoin="round"/>
<path d="M581.651 674.076C581.651 674.076 583.681 675.612 584.503 681.15" stroke="white" stroke-linecap="round" stroke-linejoin="round"/>
<path d="M574.138 681.148C575.904 681.34 577.611 681.897 579.15 682.785C580.689 683.672 582.026 684.871 583.077 686.303" stroke="white" stroke-linecap="round" stroke-linejoin="round"/>
<path d="M513.668 659.908C513.668 659.908 519.517 662.87 518.256 671.26" stroke="white" stroke-linecap="round" stroke-linejoin="round"/>
<path d="M507.508 667.037C507.508 667.037 515.496 671.772 516.063 676.013" stroke="white" stroke-linecap="round" stroke-linejoin="round"/>
<path d="M600.096 615.891C600.096 615.891 617.882 618.376 621.867 615.891" stroke="white" stroke-linecap="round" stroke-linejoin="round"/>
<path d="M592.93 507.069C591.399 502.714 590.777 498.092 591.102 493.487C591.174 491.925 591.339 490.368 591.595 488.826L588.506 483.926L584.539 477.62L589.127 459.34C589.127 459.34 618.375 464.97 620.569 473.123C622.763 481.276 592.93 507.069 592.93 507.069Z" fill="white"/>
<path opacity="0.2" d="M591.065 493.559C591.138 491.997 591.303 490.441 591.559 488.898L588.47 483.999C594.039 483.141 599.11 480.297 602.746 475.992C602.9 479.778 601.853 483.515 599.755 486.67C597.657 489.825 594.616 492.236 591.065 493.559Z" fill="#1D3557" fill-opacity="0.7"/>
<path d="M592.93 507.069C591.399 502.714 590.777 498.092 591.102 493.487C591.174 491.925 591.339 490.368 591.595 488.826L588.506 483.926L584.539 477.62L589.127 459.34C589.127 459.34 618.375 464.97 620.569 473.123C622.763 481.276 592.93 507.069 592.93 507.069Z" stroke="#1D3557" stroke-linecap="round" stroke-linejoin="round"/>
<path d="M611.283 460.876C620.423 437.112 614.354 396.658 570.482 404.409C544.743 408.979 541.636 440.091 550.227 453.911C558.819 467.731 549.697 468.169 562.621 478.406C567.868 482.556 572.09 489.594 578.342 490.051C585.782 490.562 595.306 483.525 602.417 475.92" fill="white"/>
<path d="M611.283 460.876C620.423 437.112 614.354 396.658 570.482 404.409C544.743 408.979 541.636 440.091 550.227 453.911C558.819 467.731 549.697 468.169 562.621 478.406C567.868 482.556 572.09 489.594 578.342 490.051C585.782 490.562 595.306 483.525 602.417 475.92" stroke="#1D3557" stroke-linecap="round" stroke-linejoin="round"/>
<path d="M568.051 453.911C568.051 453.911 574.522 448.025 582.218 450.456" stroke="#1D3557" stroke-linecap="round" stroke-linejoin="round"/>
<path d="M555.931 453.911C555.064 452.384 553.855 451.078 552.399 450.096C550.944 449.113 549.281 448.479 547.541 448.244" stroke="#1D3557" stroke-linecap="round" stroke-linejoin="round"/>
<path d="M560.208 462.484C560.208 462.484 559.276 467.219 558.051 472.008C556.827 476.798 565.729 474.184 565.363 473.453" fill="white"/>
<path d="M560.208 462.484C560.208 462.484 559.276 467.219 558.051 472.008C556.827 476.798 565.729 474.184 565.363 473.453" stroke="#1D3557" stroke-linecap="round" stroke-linejoin="round"/>
<path d="M569.952 479.429C573.726 478.348 577.084 476.149 579.585 473.123" stroke="#1D3557" stroke-linecap="round" stroke-linejoin="round"/>
<path d="M577.063 459.925C577.212 460.192 577.298 460.489 577.315 460.794C577.333 461.099 577.28 461.404 577.162 461.685C577.043 461.967 576.862 462.218 576.632 462.419C576.403 462.62 576.13 462.766 575.835 462.846C575.541 462.927 575.231 462.938 574.931 462.881C574.631 462.824 574.348 462.699 574.104 462.516C573.859 462.334 573.659 462.097 573.52 461.826C573.38 461.554 573.304 461.254 573.297 460.949C573.148 460.682 573.062 460.385 573.045 460.08C573.028 459.775 573.081 459.47 573.199 459.189C573.317 458.907 573.498 458.656 573.728 458.455C573.958 458.254 574.231 458.108 574.525 458.027C574.82 457.947 575.129 457.935 575.429 457.993C575.729 458.05 576.012 458.175 576.257 458.357C576.502 458.54 576.701 458.777 576.841 459.048C576.981 459.32 577.057 459.62 577.063 459.925Z" fill="#1D3557"/>
<path d="M557.54 459.522C557.905 460.839 557.65 462.082 556.955 462.264C556.26 462.447 555.401 461.533 555.127 460.199C554.853 458.864 555.035 457.64 555.73 457.457C556.425 457.274 557.138 458.188 557.54 459.522Z" fill="#1D3557"/>
<path d="M584.228 429.434C584.228 429.434 577.428 447.22 560.611 446.818C560.611 446.818 566.442 442.376 568.051 438.135C568.051 438.135 555.108 450.931 542.184 444.423C529.26 437.916 535.604 407.644 555.437 395.689C575.271 383.734 595.562 386.933 602.435 398.358C602.435 398.358 616.328 397.078 622.452 417.497C627.936 435.777 619.161 463.489 610.588 463.8C597.299 464.294 594.63 449.871 594.63 449.871C589.141 444.292 585.508 437.154 584.228 429.434Z" fill="#1D3557" stroke="#1D3557" stroke-linecap="round" stroke-linejoin="round"/>
<path d="M598.798 460.967C598.798 460.967 598.377 444.186 607.938 446.215C617.498 448.244 610.57 467.639 603.386 467.438" fill="white"/>
<path d="M598.798 460.967C598.798 460.967 598.377 444.186 607.938 446.215C617.498 448.244 610.57 467.639 603.386 467.438" stroke="#1D3557" stroke-linecap="round" stroke-linejoin="round"/>
<path d="M569.276 555.182H421.884C420.238 555.182 418.904 556.516 418.904 558.161V563.298C418.904 564.943 420.238 566.277 421.884 566.277H569.276C570.921 566.277 572.255 564.943 572.255 563.298V558.161C572.255 556.516 570.921 555.182 569.276 555.182Z" fill="#457B9D" stroke="#1D3557" stroke-linecap="round" stroke-linejoin="round"/>
<path d="M204.353 778.471H142.183L148.69 835.303H197.845L204.353 778.471Z" fill="#1D3557" stroke="#1D3557" stroke-linecap="round" stroke-linejoin="round"/>
<path d="M211.72 738.914C211.72 738.914 184.574 741.053 183.44 761.087C183.44 761.087 210.934 773.737 211.72 738.914Z" fill="#457B9D" stroke="#1D3557" stroke-linecap="round" stroke-linejoin="round"/>
<path d="M158.013 743.887C158.013 743.887 142.841 723.377 118.327 733.888C118.327 733.888 133.298 758.62 158.013 743.887Z" fill="#457B9D" stroke="#1D3557" stroke-linecap="round" stroke-linejoin="round"/>
<path d="M120.411 679.137C120.411 679.137 116.042 718.586 151.963 707.727C151.963 707.727 140.556 678.717 120.411 679.137Z" fill="#457B9D" stroke="#1D3557" stroke-linecap="round" stroke-linejoin="round"/>
<path d="M164.521 657.166C164.521 657.166 136.114 672.485 157.008 695.737C156.989 695.737 176.896 679.12 164.521 657.166Z" fill="#457B9D" stroke="#1D3557" stroke-linecap="round" stroke-linejoin="round"/>
<path d="M199.454 692.427C199.454 692.427 168.561 689.301 168.561 717.891C168.561 717.891 199.454 719.116 199.454 692.427Z" fill="#457B9D" stroke="#1D3557" stroke-linecap="round" stroke-linejoin="round"/>
<path d="M170.334 801.889C170.334 801.889 184.409 772.348 170.9 742.26C157.391 712.171 152.803 686.817 159.932 668.957" stroke="#1D3557" stroke-linecap="round" stroke-linejoin="round"/>
<path d="M189.308 700.123C189.308 700.123 170.791 707.435 164.521 726.537" stroke="#1D3557" stroke-linecap="round" stroke-linejoin="round"/>
<path d="M130.173 694.914C130.173 694.914 140.867 709.538 158.982 707.911" stroke="#1D3557" stroke-linecap="round" stroke-linejoin="round"/>
<path d="M130.173 738.092C130.173 738.092 159.786 746.61 171.559 743.832" stroke="#1D3557" stroke-linecap="round" stroke-linejoin="round"/>
<path d="M202.909 747.926C202.909 747.926 189.656 762.55 176.348 762.239" stroke="#1D3557" stroke-linecap="round" stroke-linejoin="round"/>
<path d="M139.513 785.236H207.021V777.212H139.513V785.236Z" fill="#1D3557" stroke="#1D3557" stroke-linecap="round" stroke-linejoin="round"/>
<path d="M696.907 725.717C681.123 736.024 667.879 749.774 658.171 765.933C642.066 792.804 629.307 830.607 649.123 835.397L667.969 834.684L704.237 822.235L700.435 814.923C700.435 814.923 668.682 831.759 663.253 831.759C657.824 831.759 650.749 833.112 647.77 830.936C644.79 828.761 658.208 779.899 686.926 763.611C715.644 747.324 696.907 725.717 696.907 725.717Z" fill="#457B9D"/>
<path opacity="0.5" d="M696.907 725.717C681.123 736.024 667.879 749.774 658.171 765.933C642.066 792.804 629.307 830.607 649.123 835.397L667.969 834.684L704.237 822.235L700.435 814.923C700.435 814.923 668.682 831.759 663.253 831.759C657.824 831.759 650.749 833.112 647.77 830.936C644.79 828.761 658.208 779.899 686.926 763.611C715.644 747.324 696.907 725.717 696.907 725.717Z" fill="#1D3557" fill-opacity="0.7"/>
<path d="M696.907 725.717C681.123 736.024 667.879 749.774 658.171 765.933C642.066 792.804 629.307 830.607 649.123 835.397L667.969 834.684L704.237 822.235L700.435 814.923C700.435 814.923 668.682 831.759 663.253 831.759C657.824 831.759 650.749 833.112 647.77 830.936C644.79 828.761 658.208 779.899 686.926 763.611C715.644 747.324 696.907 725.717 696.907 725.717Z" stroke="#1D3557" stroke-linecap="round" stroke-linejoin="round"/>
<path d="M717.545 708.095C717.545 708.095 717.545 700.216 729.482 699.138C741.419 698.059 743.119 709.557 743.119 709.557H739.006C739.006 709.557 739.097 702.666 730.323 702.136C721.548 701.606 721.877 709.557 721.877 709.557L717.545 708.095Z" fill="#457B9D" stroke="#1D3557" stroke-linecap="round" stroke-linejoin="round"/>
<path d="M699.886 835.397C674.641 835.397 679.431 722.189 682.337 716.577C685.244 710.966 758.492 708.169 765.712 710.545C772.933 712.922 801.888 825.709 785.912 834.721L699.886 835.397Z" fill="#457B9D"/>
<path opacity="0.2" d="M699.886 835.397C674.641 835.397 679.431 722.189 682.337 716.577C685.244 710.966 758.492 708.169 765.712 710.545C772.933 712.922 801.888 825.709 785.912 834.721L699.886 835.397Z" fill="#1D3557" fill-opacity="0.7"/>
<path d="M699.886 835.397C674.641 835.397 679.431 722.189 682.337 716.577C685.244 710.966 758.492 708.169 765.712 710.545C772.933 712.922 801.888 825.709 785.912 834.721L699.886 835.397Z" stroke="#1D3557" stroke-linecap="round" stroke-linejoin="round"/>
<path d="M682.338 716.448C691.478 718.404 696.743 755.458 709.045 764.89C721.347 774.323 779.35 772.294 785.912 764.89C792.475 757.487 779.642 715.918 770.319 709.557C760.997 703.195 754.361 709.374 728.129 706.467C689.248 702.135 682.338 716.448 682.338 716.448Z" fill="#457B9D" stroke="#1D3557" stroke-linecap="round" stroke-linejoin="round"/>
<path d="M748.913 737.744L759.662 746.519C759.81 746.645 759.932 746.799 760.019 746.973C760.107 747.147 760.159 747.336 760.173 747.53C760.186 747.724 760.161 747.919 760.099 748.103C760.036 748.288 759.937 748.457 759.808 748.603L751.436 757.633C751.303 757.768 751.145 757.874 750.971 757.947C750.797 758.02 750.61 758.057 750.421 758.057C750.233 758.057 750.046 758.02 749.871 757.947C749.697 757.874 749.539 757.768 749.407 757.633L738.749 747.652C738.607 747.519 738.493 747.358 738.415 747.178C738.337 746.999 738.297 746.806 738.297 746.61C738.297 746.415 738.337 746.222 738.415 746.042C738.493 745.863 738.607 745.702 738.749 745.568L747.03 737.872C747.277 737.629 747.602 737.482 747.948 737.458C748.294 737.435 748.636 737.536 748.913 737.744Z" fill="#457B9D"/>
<path opacity="0.2" d="M748.913 737.744L759.662 746.519C759.81 746.645 759.932 746.799 760.019 746.973C760.107 747.147 760.159 747.336 760.173 747.53C760.186 747.724 760.161 747.919 760.099 748.103C760.036 748.288 759.937 748.457 759.808 748.603L751.436 757.633C751.303 757.768 751.145 757.874 750.971 757.947C750.797 758.02 750.61 758.057 750.421 758.057C750.233 758.057 750.046 758.02 749.871 757.947C749.697 757.874 749.539 757.768 749.407 757.633L738.749 747.652C738.607 747.519 738.493 747.358 738.415 747.178C738.337 746.999 738.297 746.806 738.297 746.61C738.297 746.415 738.337 746.222 738.415 746.042C738.493 745.863 738.607 745.702 738.749 745.568L747.03 737.872C747.277 737.629 747.602 737.482 747.948 737.458C748.294 737.435 748.636 737.536 748.913 737.744Z" fill="#1D3557" fill-opacity="0.7"/>
<path d="M748.913 737.744L759.662 746.519C759.81 746.645 759.932 746.799 760.019 746.973C760.107 747.147 760.159 747.336 760.173 747.53C760.186 747.724 760.161 747.919 760.099 748.103C760.036 748.288 759.937 748.457 759.808 748.603L751.436 757.633C751.303 757.768 751.145 757.874 750.971 757.947C750.797 758.02 750.61 758.057 750.421 758.057C750.233 758.057 750.046 758.02 749.871 757.947C749.697 757.874 749.539 757.768 749.407 757.633L738.749 747.652C738.607 747.519 738.493 747.358 738.415 747.178C738.337 746.999 738.297 746.806 738.297 746.61C738.297 746.415 738.337 746.222 738.415 746.042C738.493 745.863 738.607 745.702 738.749 745.568L747.03 737.872C747.277 737.629 747.602 737.482 747.948 737.458C748.294 737.435 748.636 737.536 748.913 737.744V737.744Z" stroke="#1D3557" stroke-linecap="round" stroke-linejoin="round"/>
<path d="M713.468 783.83C713.468 783.83 762.057 787.833 785.912 781.654C789.103 784.167 791.476 787.571 792.73 791.434C794.906 797.942 799.439 820.207 785.912 825.91C772.385 831.613 723.76 830.517 717.271 824.082C710.781 817.648 713.468 783.83 713.468 783.83Z" fill="#457B9D"/>
<path opacity="0.4" d="M713.468 783.83C713.468 783.83 762.057 787.833 785.912 781.654C789.103 784.167 791.476 787.571 792.73 791.434C794.906 797.942 799.439 820.207 785.912 825.91C772.385 831.613 723.76 830.517 717.271 824.082C710.781 817.648 713.468 783.83 713.468 783.83Z" fill="#1D3557" fill-opacity="0.7"/>
<path d="M713.468 783.83C713.468 783.83 762.057 787.833 785.912 781.654C789.103 784.167 791.476 787.571 792.73 791.434C794.906 797.942 799.439 820.207 785.912 825.91C772.385 831.613 723.76 830.517 717.271 824.082C710.781 817.648 713.468 783.83 713.468 783.83Z" stroke="#1D3557" stroke-linecap="round" stroke-linejoin="round"/>
<path d="M713.469 783.83C713.469 783.83 719.172 799.203 722.152 801.561C725.131 803.919 788.252 803.919 795.272 798.216C802.291 792.513 792.676 782.203 785.931 781.654C785.912 781.654 741.693 786.809 713.469 783.83Z" fill="#457B9D" stroke="#1D3557" stroke-linecap="round" stroke-linejoin="round"/>
<path d="M693.104 780.557C693.104 780.557 694.731 812.858 697.985 820.188C695.569 821.446 692.885 822.102 690.161 822.102C687.437 822.102 684.753 821.446 682.337 820.188C674.111 815.837 675.464 788.015 677.091 788.088C678.718 788.161 693.104 780.557 693.104 780.557Z" fill="#457B9D"/>
<path opacity="0.4" d="M693.104 780.557C693.104 780.557 694.731 812.858 697.985 820.188C695.569 821.446 692.885 822.102 690.161 822.102C687.437 822.102 684.753 821.446 682.337 820.188C674.111 815.837 675.464 788.015 677.091 788.088C678.718 788.161 693.104 780.557 693.104 780.557Z" fill="#1D3557" fill-opacity="0.7"/>
<path d="M693.104 780.557C693.104 780.557 694.731 812.858 697.985 820.188C695.569 821.446 692.885 822.102 690.161 822.102C687.437 822.102 684.753 821.446 682.337 820.188C674.111 815.837 675.464 788.015 677.091 788.088C678.718 788.161 693.104 780.557 693.104 780.557Z" stroke="#1D3557" stroke-linecap="round" stroke-linejoin="round"/>
<path d="M693.105 780.557L680.875 783.006C680.875 783.006 669.213 791.964 674.368 794.943C679.523 797.923 692.812 790.611 693.105 780.557Z" fill="#457B9D" stroke="#1D3557" stroke-linecap="round" stroke-linejoin="round"/>
</svg>
