<svg width="202" height="54" viewBox="0 0 202 54" fill="none" xmlns="http://www.w3.org/2000/svg">
<g clip-path="url(#clip0)">
<path d="M74.6084 8.56928V11.2137C74.6084 11.4655 74.5559 11.6334 74.451 11.7173C74.367 11.8013 74.2096 11.8433 73.9788 11.8433H70.6103V29.9761C70.6103 30.2069 70.5474 30.3643 70.4215 30.4483C70.3165 30.5113 69.9807 30.5532 69.4141 30.5742C68.8474 30.5952 68.0814 30.6057 67.116 30.6057V11.8433H63.2754V9.19889C63.2754 8.77915 63.4853 8.56928 63.905 8.56928H74.6084ZM80.586 30.9205C78.8021 30.9205 77.5639 30.5322 76.8713 29.7557C76.1787 28.9582 75.8324 27.762 75.8324 26.1669V15.495C75.8324 15.2642 75.8849 15.1172 75.9898 15.0543C76.0948 14.9703 76.4411 14.9179 77.0287 14.8969C77.6373 14.8759 78.4453 14.8654 79.4527 14.8654V26.3873C79.4527 26.933 79.5262 27.3317 79.6731 27.5836C79.82 27.8144 80.1138 27.9299 80.5545 27.9299C81.0582 27.9299 81.457 27.7934 81.7508 27.5206V15.495C81.7508 15.2642 81.7927 15.1172 81.8767 15.0543C81.9816 14.9703 82.3174 14.9179 82.8841 14.8969C83.4717 14.8759 84.2587 14.8654 85.2451 14.8654V29.7242C84.6785 30.06 83.9754 30.3434 83.1359 30.5742C82.3174 30.8051 81.4674 30.9205 80.586 30.9205ZM91.6787 30.9205C90.7762 30.9205 90.0942 30.7526 89.6324 30.4168C89.1707 30.081 88.8559 29.5983 88.688 28.9687C88.5201 28.3391 88.4362 27.5101 88.4362 26.4817V17.8246H86.5161C86.5161 16.8592 86.5266 16.1876 86.5476 15.8098C86.5686 15.4321 86.6211 15.1802 86.705 15.0543C86.8099 14.9284 86.9883 14.8654 87.2402 14.8654H88.4362V10.3007C88.4362 9.92295 88.5306 9.66061 88.7195 9.5137C88.9084 9.36679 89.2127 9.28284 89.6324 9.26185C90.0732 9.21988 90.8392 9.19889 91.9305 9.19889V14.8654H94.5119C94.5119 15.8518 94.5014 16.5339 94.4804 16.9116C94.4594 17.2684 94.3965 17.5098 94.2916 17.6357C94.2076 17.7616 94.0502 17.8246 93.8193 17.8246H91.9305V26.4188C91.9305 26.9225 91.9725 27.3107 92.0564 27.5836C92.1404 27.8354 92.3503 27.9613 92.686 27.9613C93.2107 27.9613 93.7564 27.8249 94.323 27.5521C94.4699 28.2447 94.5434 28.8008 94.5434 29.2206C94.5434 30.3539 93.5885 30.9205 91.6787 30.9205ZM100.168 30.9205C98.9297 30.9205 97.9643 30.7211 97.2717 30.3224C96.5791 29.9026 96.0545 29.1051 95.6977 27.9299C95.3619 26.7546 95.194 25.0126 95.194 22.7041C95.194 17.2684 96.9359 14.5506 100.42 14.5506C101.595 14.5506 102.529 14.7919 103.222 15.2746C103.935 15.7364 104.46 16.5444 104.796 17.6987C105.152 18.8529 105.331 20.4794 105.331 22.5781C105.331 25.5373 104.9 27.6675 104.04 28.9687C103.201 30.2699 101.91 30.9205 100.168 30.9205ZM100.262 28.0243C100.514 28.0243 100.724 27.9089 100.892 27.678C101.06 27.4262 101.196 26.912 101.301 26.1355C101.427 25.3379 101.49 24.1837 101.49 22.6726C101.49 21.1405 101.459 20.0177 101.396 19.3042C101.333 18.5696 101.217 18.0764 101.049 17.8246C100.881 17.5727 100.63 17.4468 100.294 17.4468C99.8951 17.4468 99.5803 17.8036 99.3494 18.5172C99.1396 19.2307 99.0346 20.6159 99.0346 22.6726C99.0346 24.2466 99.0766 25.4219 99.1605 26.1984C99.2655 26.954 99.4019 27.4471 99.5698 27.678C99.7377 27.9089 99.9685 28.0243 100.262 28.0243ZM107.009 15.9672C108.436 15.0228 109.895 14.5506 111.385 14.5506C112.203 14.5506 112.759 14.6765 113.053 14.9284C113.347 15.1592 113.494 15.558 113.494 16.1246C113.494 16.8172 113.378 17.4888 113.148 18.1394C112.812 17.9715 112.423 17.8875 111.983 17.8875C111.773 17.8875 111.542 17.9295 111.29 18.0135C111.038 18.0974 110.807 18.2233 110.598 18.3912L110.566 29.9761C110.566 30.2069 110.514 30.3643 110.409 30.4483C110.304 30.5113 109.957 30.5532 109.37 30.5742C108.803 30.5952 108.016 30.6057 107.009 30.6057V15.9672ZM114.847 16.408C114.847 15.8833 114.942 15.5265 115.131 15.3376C115.32 15.1277 115.634 15.0018 116.075 14.9598C116.516 14.8969 117.292 14.8654 118.405 14.8654V29.9761C118.405 30.2069 118.352 30.3643 118.247 30.4483C118.142 30.5113 117.796 30.5532 117.208 30.5742C116.621 30.5952 115.834 30.6057 114.847 30.6057V16.408ZM116.547 13.4173C115.981 13.4173 115.551 13.2284 115.257 12.8506C114.984 12.4729 114.847 11.8223 114.847 10.8988C114.847 10.1433 115.005 9.54518 115.32 9.10445C115.655 8.66372 116.138 8.44336 116.768 8.44336C117.397 8.44336 117.828 8.61126 118.058 8.94705C118.289 9.28284 118.405 9.88097 118.405 10.7414C118.405 11.5809 118.247 12.242 117.933 12.7247C117.618 13.1864 117.156 13.4173 116.547 13.4173ZM121.119 15.5895C121.665 15.3376 122.42 15.1068 123.386 14.8969C124.372 14.666 125.243 14.5506 125.999 14.5506C127.636 14.5506 128.8 14.8444 129.493 15.4321C130.185 16.0197 130.532 17.0795 130.532 18.6116V29.9761C130.532 30.2069 130.469 30.3643 130.343 30.4483C130.238 30.5113 129.881 30.5532 129.273 30.5742C128.685 30.5952 127.898 30.6057 126.911 30.6057V19.7134C126.911 18.8529 126.838 18.2758 126.691 17.982C126.565 17.6882 126.292 17.5413 125.873 17.5413C125.411 17.5413 124.991 17.6672 124.613 17.919V29.9761C124.613 30.2069 124.55 30.3643 124.425 30.4483C124.32 30.5113 123.984 30.5532 123.417 30.5742C122.85 30.5952 122.084 30.6057 121.119 30.6057V15.5895ZM143.354 16.5339C143.354 16.9746 143.249 17.2999 143.039 17.5098C142.85 17.7196 142.588 17.8246 142.252 17.8246C142.063 17.8246 141.843 17.7931 141.591 17.7301C142.095 18.5067 142.347 19.4721 142.347 20.6264C142.347 22.3683 141.937 23.659 141.119 24.4985C140.321 25.3379 139.031 25.7577 137.247 25.7577C136.869 25.7577 136.586 25.7472 136.397 25.7262C136.124 26.083 135.987 26.3768 135.987 26.6077C135.987 26.7756 136.103 26.891 136.334 26.954C136.586 27.0169 136.984 27.0799 137.53 27.1428L138.726 27.3002C140.132 27.5311 141.171 27.9403 141.843 28.528C142.535 29.1156 142.882 30.0076 142.882 31.2038C142.882 32.8408 142.389 34.1735 141.402 35.2019C140.416 36.2512 138.915 36.7759 136.9 36.7759C133.501 36.7759 131.801 35.6006 131.801 33.2501C131.801 31.8649 132.504 30.6792 133.91 29.6928C132.797 29.336 132.241 28.7588 132.241 27.9613C132.241 27.4786 132.399 27.0064 132.714 26.5447C133.028 26.062 133.532 25.5373 134.225 24.9707C132.965 24.1312 132.336 22.6096 132.336 20.406C132.336 18.2653 132.787 16.7542 133.689 15.8728C134.592 14.9913 135.914 14.5506 137.656 14.5506C138.16 14.5506 138.674 14.645 139.198 14.8339H142.976C143.228 15.3376 143.354 15.9043 143.354 16.5339ZM137.404 23.1763C137.908 23.1763 138.265 22.9349 138.474 22.4522C138.705 21.9695 138.821 21.0461 138.821 19.6819C138.821 18.6955 138.716 18.003 138.506 17.6042C138.317 17.2055 137.981 17.0061 137.499 17.0061C137.037 17.0061 136.68 17.2579 136.428 17.7616C136.176 18.2443 136.05 19.0733 136.05 20.2486C136.05 21.3609 136.145 22.1269 136.334 22.5467C136.523 22.9664 136.879 23.1763 137.404 23.1763ZM139.324 31.676C139.324 31.3193 139.272 31.0359 139.167 30.8261C139.062 30.6372 138.821 30.4798 138.443 30.3539C138.065 30.2279 137.467 30.123 136.649 30.0391C136.292 30.3329 135.998 30.6792 135.767 31.0779C135.536 31.4977 135.421 31.9174 135.421 32.3371C135.421 32.7779 135.557 33.0927 135.83 33.2816C136.103 33.4914 136.586 33.5964 137.278 33.5964C137.992 33.5964 138.506 33.397 138.821 32.9982C139.157 32.5995 139.324 32.1587 139.324 31.676ZM144.45 9.19889C144.45 8.98902 144.513 8.83162 144.639 8.72668C144.765 8.62175 144.996 8.56928 145.332 8.56928H148.417C149.991 8.56928 151.271 8.92606 152.258 9.63962C153.244 10.3532 153.737 11.6439 153.737 13.5117C153.737 15.0018 153.443 16.1876 152.856 17.069C152.289 17.9505 151.618 18.4437 150.841 18.5486C153.255 18.8005 154.461 20.322 154.461 23.1133C154.461 25.3589 153.979 27.1743 153.013 28.5595C152.048 29.9236 150.568 30.6057 148.574 30.6057H144.45V9.19889ZM148.637 17.2579C149.036 17.2579 149.34 16.9851 149.55 16.4394C149.781 15.8938 149.897 15.1697 149.897 14.2673C149.897 13.2389 149.792 12.5463 149.582 12.1896C149.393 11.8118 149.12 11.6229 148.763 11.6229H148.008V17.2579H148.637ZM148.669 27.5836C149.173 27.5836 149.571 27.2163 149.865 26.4817C150.159 25.7472 150.306 24.7293 150.306 23.4281C150.306 22.5047 150.243 21.8121 150.117 21.3504C150.012 20.8887 149.844 20.5844 149.613 20.4375C149.403 20.2906 149.11 20.2171 148.732 20.2171H148.008V27.5836H148.669ZM155.859 15.9672C157.286 15.0228 158.744 14.5506 160.234 14.5506C161.053 14.5506 161.609 14.6765 161.903 14.9284C162.197 15.1592 162.344 15.558 162.344 16.1246C162.344 16.8172 162.228 17.4888 161.997 18.1394C161.662 17.9715 161.273 17.8875 160.833 17.8875C160.623 17.8875 160.392 17.9295 160.14 18.0135C159.888 18.0974 159.657 18.2233 159.447 18.3912L159.416 29.9761C159.416 30.2069 159.364 30.3643 159.259 30.4483C159.154 30.5113 158.807 30.5532 158.22 30.5742C157.653 30.5952 156.866 30.6057 155.859 30.6057V15.9672ZM167.759 30.9205C166.857 30.9205 166.08 30.8051 165.43 30.5742C164.8 30.3434 164.286 29.8712 163.887 29.1576C163.488 28.423 163.289 27.3737 163.289 26.0095C163.289 24.0367 163.625 22.6831 164.296 21.9485C164.968 21.193 165.849 20.8152 166.941 20.8152C167.256 20.8152 167.602 20.8572 167.98 20.9412C168.378 21.0041 168.704 21.1195 168.955 21.2874V19.1153C168.955 18.6955 168.851 18.3912 168.641 18.2023C168.452 18.0135 168.116 17.919 167.633 17.919C167.046 17.919 166.395 17.982 165.681 18.1079C164.968 18.2338 164.349 18.3912 163.824 18.5801C163.509 17.9715 163.352 17.2999 163.352 16.5654C163.352 16.3555 163.394 16.1456 163.478 15.9357C163.562 15.7259 163.667 15.5685 163.793 15.4635C164.065 15.2537 164.632 15.0543 165.493 14.8654C166.353 14.6555 167.35 14.5506 168.483 14.5506C169.931 14.5506 170.949 14.8444 171.537 15.4321C172.145 15.9987 172.45 16.9851 172.45 18.3912V19.8708C172.45 25.0126 172.397 28.3601 172.292 29.9131C171.159 30.5847 169.648 30.9205 167.759 30.9205ZM168.011 28.0558C168.41 28.0558 168.704 27.9508 168.892 27.741C168.934 27.2583 168.955 25.8941 168.955 23.6485C168.746 23.4596 168.462 23.3652 168.105 23.3652C167.728 23.3652 167.444 23.554 167.256 23.9318C167.067 24.2886 166.972 24.9497 166.972 25.9151C166.972 26.6916 167.046 27.2478 167.193 27.5836C167.339 27.8984 167.612 28.0558 168.011 28.0558ZM174.366 16.408C174.366 15.8833 174.46 15.5265 174.649 15.3376C174.838 15.1277 175.153 15.0018 175.593 14.9598C176.034 14.8969 176.811 14.8654 177.923 14.8654V29.9761C177.923 30.2069 177.871 30.3643 177.766 30.4483C177.661 30.5113 177.314 30.5532 176.727 30.5742C176.139 30.5952 175.352 30.6057 174.366 30.6057V16.408ZM176.066 13.4173C175.499 13.4173 175.069 13.2284 174.775 12.8506C174.502 12.4729 174.366 11.8223 174.366 10.8988C174.366 10.1433 174.523 9.54518 174.838 9.10445C175.174 8.66372 175.656 8.44336 176.286 8.44336C176.916 8.44336 177.346 8.61126 177.577 8.94705C177.808 9.28284 177.923 9.88097 177.923 10.7414C177.923 11.5809 177.766 12.242 177.451 12.7247C177.136 13.1864 176.674 13.4173 176.066 13.4173ZM180.637 15.5895C181.183 15.3376 181.939 15.1068 182.904 14.8969C183.89 14.666 184.761 14.5506 185.517 14.5506C187.154 14.5506 188.319 14.8444 189.011 15.4321C189.704 16.0197 190.05 17.0795 190.05 18.6116V29.9761C190.05 30.2069 189.987 30.3643 189.861 30.4483C189.756 30.5113 189.399 30.5532 188.791 30.5742C188.203 30.5952 187.416 30.6057 186.43 30.6057V19.7134C186.43 18.8529 186.356 18.2758 186.209 17.982C186.083 17.6882 185.811 17.5413 185.391 17.5413C184.929 17.5413 184.509 17.6672 184.132 17.919V29.9761C184.132 30.2069 184.069 30.3643 183.943 30.4483C183.838 30.5113 183.502 30.5532 182.935 30.5742C182.369 30.5952 181.603 30.6057 180.637 30.6057V15.5895ZM195.624 30.9205C193.147 30.9205 191.909 30.3014 191.909 29.0632C191.909 28.4545 192.098 27.8039 192.476 27.1114C193.336 27.5731 194.26 27.8039 195.246 27.8039C195.792 27.8039 196.201 27.6885 196.474 27.4576C196.747 27.2058 196.883 26.87 196.883 26.4503C196.883 25.8207 196.642 25.233 196.159 24.6873L193.42 21.7911C192.895 21.2455 192.507 20.6788 192.255 20.0912C192.004 19.5035 191.878 18.9579 191.878 18.4542C191.878 17.2579 192.287 16.3135 193.105 15.6209C193.924 14.9074 195.246 14.5506 197.072 14.5506C198.625 14.5506 199.653 14.75 200.157 15.1487C200.682 15.5265 200.944 15.9882 200.944 16.5339C200.944 16.8067 200.881 17.1005 200.755 17.4153C200.65 17.7091 200.493 17.9715 200.283 18.2023C199.464 17.7616 198.551 17.5413 197.544 17.5413C196.537 17.5413 196.033 17.8666 196.033 18.5172C196.033 18.727 196.096 18.9474 196.222 19.1782C196.348 19.4091 196.6 19.7134 196.977 20.0912L199.307 22.4522C199.916 23.1658 200.325 23.8059 200.535 24.3725C200.766 24.9182 200.881 25.5898 200.881 26.3873C200.881 27.7934 200.409 28.9058 199.464 29.7242C198.52 30.5218 197.24 30.9205 195.624 30.9205Z" fill="#1D3557"/>
<path d="M24.0655 27.1507L10.1816 35.1666V19.1348L24.0655 27.1507Z" fill="#E63946"/>
<path d="M25.9163 29.002L33.9322 42.886H17.9004L25.9163 29.002Z" fill="#E63946"/>
<path d="M25.9163 24.0656L17.9004 10.1816H33.9322L25.9163 24.0656Z" fill="#E63946"/>
<path d="M28.3848 27.1507L42.2688 19.1348V35.1666L28.3848 27.1507Z" fill="#E63946"/>
<path d="M0 26.7129H11.1242" stroke="#E63946"/>
<path d="M41.3428 26.7129H52.4671" stroke="#E63946"/>
<path d="M25.4795 11.1243V0" stroke="#E63946"/>
<path d="M25.4795 53.0853V41.9609" stroke="#E63946"/>
<path d="M59.0264 52.4677V0" stroke="#1D3557"/>
<path d="M73.1877 44.8001H70.057V48.0948H69.0732V40.6346H73.6949V41.444H70.057V43.9957H73.1877V44.8001ZM74.361 45.2716C74.361 44.7284 74.4669 44.24 74.6787 43.8061C74.8939 43.3723 75.191 43.0376 75.5702 42.8019C75.9528 42.5662 76.3884 42.4484 76.8768 42.4484C77.6317 42.4484 78.2414 42.7096 78.706 43.2323C79.1739 43.7549 79.4079 44.45 79.4079 45.3176V45.3843C79.4079 45.924 79.3038 46.4091 79.0954 46.8395C78.8904 47.2664 78.595 47.5995 78.209 47.8385C77.8264 48.0777 77.3858 48.1972 76.8871 48.1972C76.1355 48.1972 75.5258 47.9359 75.0579 47.4133C74.5933 46.8906 74.361 46.1989 74.361 45.3382V45.2716ZM75.3141 45.3843C75.3141 45.9991 75.4558 46.4927 75.7393 46.8651C76.0262 47.2373 76.4088 47.4235 76.8871 47.4235C77.3687 47.4235 77.7513 47.2357 78.0348 46.8599C78.3183 46.4808 78.46 45.9513 78.46 45.2716C78.46 44.6635 78.3149 44.1717 78.0246 43.7959C77.7376 43.4167 77.355 43.2272 76.8768 43.2272C76.4088 43.2272 76.0314 43.4133 75.7444 43.7857C75.4575 44.1579 75.3141 44.6908 75.3141 45.3843ZM82.8203 47.4235C83.1586 47.4235 83.454 47.321 83.7068 47.1161C83.9596 46.9112 84.0996 46.655 84.127 46.3476H85.0236C85.0065 46.6652 84.8972 46.9675 84.6957 47.2545C84.4941 47.5414 84.2243 47.7702 83.8861 47.941C83.5514 48.1118 83.1961 48.1972 82.8203 48.1972C82.0655 48.1972 81.4643 47.9462 81.0168 47.4441C80.5727 46.9385 80.3507 46.2485 80.3507 45.374V45.2152C80.3507 44.6754 80.4498 44.1955 80.6479 43.7754C80.846 43.3553 81.1295 43.029 81.4984 42.7967C81.8708 42.5645 82.3098 42.4484 82.8153 42.4484C83.4369 42.4484 83.9528 42.6345 84.3626 43.0068C84.776 43.3791 84.9963 43.8625 85.0236 44.4568H84.127C84.0996 44.0982 83.963 43.8045 83.717 43.5755C83.4745 43.3433 83.1739 43.2272 82.8153 43.2272C82.3336 43.2272 81.9596 43.4013 81.6932 43.7497C81.4301 44.0948 81.2986 44.5952 81.2986 45.251V45.4304C81.2986 46.0692 81.4301 46.561 81.6932 46.906C81.9562 47.2511 82.3319 47.4235 82.8203 47.4235ZM89.5118 47.5465C89.1428 47.9803 88.6015 48.1972 87.8879 48.1972C87.2969 48.1972 86.846 48.0265 86.5351 47.6848C86.2277 47.3398 86.0723 46.8309 86.0689 46.158V42.5508H87.0168V46.1324C87.0168 46.9726 87.3583 47.3928 88.0418 47.3928C88.7659 47.3928 89.2477 47.123 89.4864 46.5832V42.5508H90.4343V48.0948H89.5328L89.5118 47.5465ZM95.1075 46.6243C95.1075 46.368 95.0095 46.1699 94.8154 46.0299C94.6239 45.8864 94.2872 45.7634 93.8054 45.661C93.3279 45.5585 92.9467 45.4355 92.6633 45.292C92.3826 45.1486 92.1745 44.9777 92.0381 44.7797C91.9052 44.5815 91.8379 44.3459 91.8379 44.0726C91.8379 43.6183 92.0294 43.234 92.4124 42.9197C92.798 42.6055 93.2903 42.4484 93.8876 42.4484C94.5163 42.4484 95.0253 42.6106 95.4144 42.9351C95.807 43.2596 96.0038 43.6746 96.0038 44.1801H95.0506C95.0506 43.9206 94.9396 43.6968 94.7174 43.509C94.4988 43.3211 94.2225 43.2272 93.8876 43.2272C93.543 43.2272 93.2728 43.3023 93.0778 43.4526C92.8837 43.6029 92.7858 43.7993 92.7858 44.0418C92.7858 44.2707 92.8767 44.4432 93.0577 44.5593C93.2387 44.6754 93.5649 44.7865 94.0362 44.8924C94.5111 44.9983 94.8958 45.1246 95.1888 45.2716C95.4826 45.4185 95.6995 45.5961 95.8402 45.8045C95.9837 46.0093 96.0554 46.2604 96.0554 46.5576C96.0554 47.0529 95.8569 47.4509 95.4607 47.7514C95.0646 48.0487 94.5504 48.1972 93.9182 48.1972C93.4748 48.1972 93.0813 48.1186 92.7403 47.9616C92.3984 47.8044 92.1299 47.5858 91.9358 47.3057C91.7443 47.0221 91.649 46.7164 91.649 46.3885H92.5969C92.6135 46.7062 92.7403 46.959 92.9755 47.1468C93.2151 47.3313 93.5291 47.4235 93.9182 47.4235C94.2767 47.4235 94.5644 47.3518 94.7795 47.2083C94.9981 47.0615 95.1075 46.8667 95.1075 46.6243ZM99.6415 45.2716C99.6415 44.7284 99.7473 44.24 99.9598 43.8061C100.175 43.3723 100.471 43.0376 100.851 42.8019C101.234 42.5662 101.669 42.4484 102.157 42.4484C102.913 42.4484 103.522 42.7096 103.987 43.2323C104.455 43.7549 104.689 44.45 104.689 45.3176V45.3843C104.689 45.924 104.585 46.4091 104.376 46.8395C104.171 47.2664 103.876 47.5995 103.49 47.8385C103.107 48.0777 102.666 48.1972 102.168 48.1972C101.417 48.1972 100.806 47.9359 100.338 47.4133C99.8741 46.8906 99.6415 46.1989 99.6415 45.3382V45.2716ZM100.595 45.3843C100.595 45.9991 100.736 46.4927 101.02 46.8651C101.307 47.2373 101.689 47.4235 102.168 47.4235C102.65 47.4235 103.032 47.2357 103.315 46.8599C103.599 46.4808 103.741 45.9513 103.741 45.2716C103.741 44.6635 103.596 44.1717 103.306 43.7959C103.019 43.4167 102.636 43.2272 102.157 43.2272C101.689 43.2272 101.312 43.4133 101.025 43.7857C100.738 44.1579 100.595 44.6908 100.595 45.3843ZM106.774 42.5508L106.805 43.2476C107.228 42.7148 107.782 42.4484 108.465 42.4484C109.637 42.4484 110.228 43.1093 110.237 44.4312V48.0948H109.289V44.4261C109.287 44.0265 109.194 43.731 109.013 43.5397C108.836 43.3484 108.557 43.2528 108.178 43.2528C107.87 43.2528 107.601 43.3347 107.368 43.4987C107.137 43.6626 106.955 43.8778 106.825 44.1443V48.0948H105.877V42.5508H106.774ZM116.084 46.7062L117.376 42.5508H118.39L116.161 48.9504C115.816 49.8727 115.267 50.3338 114.516 50.3338L114.337 50.3185L113.984 50.2519V49.4833L114.24 49.5038C114.561 49.5038 114.81 49.4389 114.987 49.3091C115.168 49.1793 115.317 48.9419 115.433 48.5969L115.643 48.0333L113.665 42.5508H114.701L116.084 46.7062ZM118.908 45.2716C118.908 44.7284 119.013 44.24 119.225 43.8061C119.44 43.3723 119.737 43.0376 120.116 42.8019C120.499 42.5662 120.935 42.4484 121.423 42.4484C122.178 42.4484 122.788 42.7096 123.252 43.2323C123.72 43.7549 123.954 44.45 123.954 45.3176V45.3843C123.954 45.924 123.85 46.4091 123.642 46.8395C123.436 47.2664 123.141 47.5995 122.755 47.8385C122.372 48.0777 121.932 48.1972 121.433 48.1972C120.682 48.1972 120.072 47.9359 119.604 47.4133C119.139 46.8906 118.908 46.1989 118.908 45.3382V45.2716ZM119.86 45.3843C119.86 45.9991 120.002 46.4927 120.286 46.8651C120.573 47.2373 120.955 47.4235 121.433 47.4235C121.915 47.4235 122.297 47.2357 122.581 46.8599C122.865 46.4808 123.006 45.9513 123.006 45.2716C123.006 44.6635 122.861 44.1717 122.571 43.7959C122.284 43.4167 121.901 43.2272 121.423 43.2272C120.955 43.2272 120.578 43.4133 120.291 43.7857C120.003 44.1579 119.86 44.6908 119.86 45.3843ZM128.565 47.5465C128.197 47.9803 127.655 48.1972 126.941 48.1972C126.35 48.1972 125.9 48.0265 125.588 47.6848C125.282 47.3398 125.126 46.8309 125.122 46.158V42.5508H126.07V46.1324C126.07 46.9726 126.412 47.3928 127.095 47.3928C127.819 47.3928 128.301 47.123 128.54 46.5832V42.5508H129.488V48.0948H128.586L128.565 47.5465ZM133.612 43.4013C133.469 43.3775 133.313 43.3655 133.146 43.3655C132.525 43.3655 132.102 43.6302 131.88 44.1597V48.0948H130.932V42.5508H131.855L131.871 43.1913C132.181 42.696 132.622 42.4484 133.192 42.4484C133.376 42.4484 133.517 42.4722 133.612 42.5201V43.4013ZM138.121 48.0948H137.173V40.2246H138.121V48.0948ZM141.943 48.1972C141.192 48.1972 140.581 47.9513 140.11 47.4594C139.638 46.9641 139.402 46.3032 139.402 45.4765V45.3022C139.402 44.7523 139.506 44.2622 139.714 43.8318C139.927 43.3979 140.221 43.0598 140.596 42.8172C140.975 42.5713 141.386 42.4484 141.826 42.4484C142.547 42.4484 143.106 42.6858 143.506 43.1605C143.906 43.6354 144.106 44.3151 144.106 45.1999V45.5943H140.35C140.364 46.1409 140.522 46.5832 140.827 46.9214C141.134 47.2561 141.524 47.4235 141.995 47.4235C142.33 47.4235 142.613 47.3552 142.846 47.2185C143.078 47.082 143.281 46.9009 143.455 46.6755L144.034 47.1264C143.57 47.8403 142.873 48.1972 141.943 48.1972ZM141.826 43.2272C141.443 43.2272 141.122 43.3672 140.863 43.6473C140.603 43.924 140.442 44.3134 140.381 44.8155H143.158V44.7438C143.131 44.2622 143.001 43.8898 142.769 43.6268C142.536 43.3603 142.222 43.2272 141.826 43.2272ZM148.63 48.0948C148.575 47.9854 148.531 47.7907 148.497 47.5106C148.056 47.9684 147.53 48.1972 146.919 48.1972C146.373 48.1972 145.923 48.0435 145.572 47.7361C145.223 47.4253 145.049 47.0325 145.049 46.5576C145.049 45.9803 145.267 45.5328 145.704 45.2152C146.145 44.8941 146.763 44.7335 147.559 44.7335H148.482V44.298C148.482 43.9667 148.383 43.7037 148.184 43.509C147.986 43.3108 147.694 43.2118 147.308 43.2118C146.97 43.2118 146.687 43.2972 146.457 43.468C146.229 43.6388 146.115 43.8454 146.115 44.088H145.161C145.161 43.8113 145.259 43.5448 145.454 43.2886C145.651 43.029 145.918 42.8241 146.253 42.6738C146.591 42.5235 146.962 42.4484 147.364 42.4484C148.003 42.4484 148.504 42.6089 148.866 42.93C149.228 43.2476 149.416 43.6866 149.43 44.2468V46.7985C149.43 47.3074 149.494 47.7122 149.624 48.0127V48.0948H148.63ZM147.057 47.3723C147.355 47.3723 147.636 47.2954 147.903 47.1418C148.169 46.988 148.362 46.7882 148.482 46.5422V45.4047H147.738C146.577 45.4047 145.997 45.7446 145.997 46.4244C145.997 46.7216 146.095 46.9538 146.294 47.1212C146.492 47.2886 146.746 47.3723 147.057 47.3723ZM153.595 43.4013C153.451 43.3775 153.297 43.3655 153.129 43.3655C152.507 43.3655 152.085 43.6302 151.863 44.1597V48.0948H150.915V42.5508H151.838L151.853 43.1913C152.164 42.696 152.605 42.4484 153.175 42.4484C153.36 42.4484 153.499 42.4722 153.595 42.5201V43.4013ZM155.368 42.5508L155.399 43.2476C155.822 42.7148 156.376 42.4484 157.058 42.4484C158.23 42.4484 158.821 43.1093 158.832 44.4312V48.0948H157.884V44.4261C157.88 44.0265 157.788 43.731 157.607 43.5397C157.429 43.3484 157.151 43.2528 156.772 43.2528C156.465 43.2528 156.195 43.3347 155.963 43.4987C155.73 43.6626 155.549 43.8778 155.419 44.1443V48.0948H154.471V42.5508H155.368ZM161.291 48.0948H160.343V42.5508H161.291V48.0948ZM160.266 41.0803C160.266 40.9265 160.312 40.7968 160.405 40.6909C160.5 40.585 160.64 40.5321 160.825 40.5321C161.009 40.5321 161.149 40.585 161.245 40.6909C161.341 40.7968 161.389 40.9265 161.389 41.0803C161.389 41.234 161.341 41.3621 161.245 41.4646C161.149 41.5671 161.009 41.6183 160.825 41.6183C160.64 41.6183 160.5 41.5671 160.405 41.4646C160.312 41.3621 160.266 41.234 160.266 41.0803ZM163.71 42.5508L163.74 43.2476C164.163 42.7148 164.717 42.4484 165.4 42.4484C166.572 42.4484 167.163 43.1093 167.173 44.4312V48.0948H166.225V44.4261C166.222 44.0265 166.129 43.731 165.948 43.5397C165.771 43.3484 165.493 43.2528 165.113 43.2528C164.806 43.2528 164.536 43.3347 164.304 43.4987C164.072 43.6626 163.891 43.8778 163.76 44.1443V48.0948H162.813V42.5508H163.71ZM168.377 45.2766C168.377 44.4125 168.577 43.7259 168.976 43.2169C169.376 42.7045 169.906 42.4484 170.565 42.4484C171.241 42.4484 171.769 42.6874 172.148 43.1657L172.194 42.5508H173.06V47.9616C173.06 48.6789 172.847 49.2442 172.42 49.6575C171.996 50.0709 171.426 50.2775 170.709 50.2775C170.309 50.2775 169.917 50.1921 169.535 50.0213C169.153 49.8505 168.861 49.6165 168.659 49.3193L169.151 48.7506C169.557 49.2527 170.055 49.5038 170.642 49.5038C171.103 49.5038 171.462 49.374 171.718 49.1144C171.978 48.8547 172.107 48.4893 172.107 48.0179V47.5414C171.728 47.9786 171.211 48.1972 170.555 48.1972C169.906 48.1972 169.38 47.9359 168.976 47.4133C168.577 46.8906 168.377 46.1785 168.377 45.2766ZM169.331 45.3843C169.331 46.0093 169.458 46.5012 169.715 46.8599C169.971 47.2151 170.329 47.3928 170.791 47.3928C171.388 47.3928 171.827 47.1212 172.107 46.5781V44.047C171.817 43.5175 171.381 43.2528 170.801 43.2528C170.34 43.2528 169.979 43.4321 169.72 43.7907C169.46 44.1494 169.331 44.6806 169.331 45.3843ZM177.723 46.6243C177.723 46.368 177.626 46.1699 177.431 46.0299C177.24 45.8864 176.903 45.7634 176.422 45.661C175.943 45.5585 175.563 45.4355 175.279 45.292C174.999 45.1486 174.791 44.9777 174.654 44.7797C174.521 44.5815 174.454 44.3459 174.454 44.0726C174.454 43.6183 174.646 43.234 175.028 42.9197C175.414 42.6055 175.906 42.4484 176.504 42.4484C177.132 42.4484 177.641 42.6106 178.031 42.9351C178.423 43.2596 178.62 43.6746 178.62 44.1801H177.667C177.667 43.9206 177.556 43.6968 177.334 43.509C177.115 43.3211 176.839 43.2272 176.504 43.2272C176.158 43.2272 175.889 43.3023 175.694 43.4526C175.499 43.6029 175.402 43.7993 175.402 44.0418C175.402 44.2707 175.493 44.4432 175.674 44.5593C175.855 44.6754 176.181 44.7865 176.652 44.8924C177.127 44.9983 177.511 45.1246 177.805 45.2716C178.099 45.4185 178.316 45.5961 178.456 45.8045C178.599 46.0093 178.671 46.2604 178.671 46.5576C178.671 47.0529 178.473 47.4509 178.077 47.7514C177.68 48.0487 177.167 48.1972 176.534 48.1972C176.09 48.1972 175.698 48.1186 175.356 47.9616C175.015 47.8044 174.746 47.5858 174.551 47.3057C174.36 47.0221 174.264 46.7164 174.264 46.3885H175.212C175.23 46.7062 175.356 46.959 175.592 47.1468C175.83 47.3313 176.145 47.4235 176.534 47.4235C176.893 47.4235 177.18 47.3518 177.395 47.2083C177.613 47.0615 177.723 46.8667 177.723 46.6243Z" fill="#457B9D"/>
</g>
<defs>
<clipPath id="clip0">
<rect width="202" height="53.3421" fill="white"/>
</clipPath>
</defs>
</svg>
